<?xml version="1.0" encoding="utf-8"?>
<!-- Generator: Adobe Illustrator 21.0.0, SVG Export Plug-In . SVG Version: 6.00 Build 0)  -->
<svg version="1.1" id="Layer_1" xmlns="http://www.w3.org/2000/svg" xmlns:xlink="http://www.w3.org/1999/xlink" x="0px" y="0px"
	 viewBox="0 0 1135.2 726.5" style="enable-background:new 0 0 1135.2 726.5;" xml:space="preserve">
<style type="text/css">
	.st0{opacity:0.1;}
	.st1{fill:#231815;}
	.st2{font-family:'BigruixianBlackGBV1.0';}
	.st3{font-size:70px;}
</style>
<g class="st0">
	<path class="st1" d="M216.1,591.1c0-3.9-3.7-7.4-7.6-7.4H34.3c-3.9,0-7.8,3.2-7.8,7.4v113.8H5l1.6,4.9c0.2,0.5,4.6,13.1,21.2,13.1
		h186.7c16.2,0,20.8-11.8,21.2-13.1l1.6-4.9h-21.2L216.1,591.1L216.1,591.1z M32.5,591.3c0-0.9,0.9-1.4,1.8-1.4h174
		c0.9,0,1.8,0.5,1.8,1.4v115.6H32.5V591.3z M229.8,709.9c-2.1,3-6.5,6.9-15,6.9H28.1c-8.8,0-12.9-3.9-14.8-6.9H229.8z"/>
	<rect x="37.5" y="594.8" class="st1" width="167.5" height="106.1"/>
	<path class="st1" d="M779.9,399.6h83.5c2.1,0,6.9,0.2,8.1-4.2c1.2-4.4-2.5-6.2-5.3-8.1c-2.3-1.4-6.2-3.7-7.6-6.2
		c-2.8-4.4-3.9-13.4-4.2-22.2h105.5c5.3,0,9.9-4.2,9.9-9.7V157.8c0-5.3-4.4-10.2-9.7-10.2H682.3c-5.3,0-9.9,4.8-9.9,10.4v191.3
		c0,5.3,4.4,9.7,9.9,9.7h106.4c0,7.8-1.2,17.8-3.9,22.2c-1.6,2.5-5.1,4.6-7.6,6.2c-2.8,1.8-6.5,3.9-5.3,8.1
		C772.9,399.8,777.8,399.6,779.9,399.6z M680.2,157.8c0-1.2,0.7-2.3,1.8-2.3h277.8c1.2,0,1.8,1.2,1.8,2.3v166.4H680.2V157.8
		L680.2,157.8z M682.3,351.8c-1.2,0-1.8-1.4-1.8-2.8v-21h281.7v21h-0.2c0,1.2-0.7,2.8-1.8,2.8H682.3z M790.9,385
		c4.9-8.1,5.1-24.2,4.9-29.3h50.8c0,4.8,0.5,21.2,5.3,29.3c2.3,3.2,5.5,5.5,8.3,7.4h-77.1C785.9,390.4,789.1,388,790.9,385z"/>
	<rect x="687.1" y="162.4" class="st1" width="267.9" height="154.8"/>
	<path class="st1" d="M945.8,422.9l2.8-13.8h4.4c0.9,0,1.4,0.2,1.6,0.5c0.2,0.2,0.2,0.9,0,1.8l-2.3,11.5v0.2h0.2h6.2
		c0.7,0.2,0.7,0.2,0.7,0l2.3-12.9c0.2-1.6,0-3-0.7-3.9c-1.2-1.4-3-2.3-5.8-2.3h-5.3l1.2-6.2v-0.2h-0.2h-6c-0.2,0-0.2,0-0.2,0.2
		l-2.5,12.9c-0.5-3.9-3-6.2-7.8-6.7h-11.5c-0.2,0-0.2,0-0.2,0.2l-5.1,25.4v0.2h0.2h6c0.2,0,0.2,0,0.2-0.2l1.2-6.2h5.3
		c0.2,0,0.5,0,0.5,0c3.7,0,7.6-2.1,9.7-6l-1.2,5.5v0.2h0.2h6C945.8,423.1,945.8,423.1,945.8,422.9z M929.6,418h-3.5l1.4-8.8h3.9
		c0.9,0,3.5,0.2,3.5,2.5C934.7,417.1,932.2,417.8,929.6,418z"/>
	<path class="st1" d="M964.2,404.2l-5.1,25.4v0.2h0.2h6c0.2,0,0.2,0,0.2-0.2l1.2-6.2h5.3c0.2,0,0.5,0,0.5,0c5.5,0,11.1-4.4,11.1-12
		c0.2-4.4-2.3-7.2-7.6-7.4h-11.5C964.2,404,964.2,404,964.2,404.2z M969.5,409.3h3.9c0.9,0,3.5,0.2,3.5,2.5c-0.2,5.3-2.8,6-5.3,6.2
		h-3.5L969.5,409.3z"/>
	<path class="st1" d="M1084.9,558.1v-90.2c0.2-4.4-3.5-7.8-7.8-7.8H949.2c-4.4,0-7.8,3.5-7.8,7.8v90.2c0,4.4,3.5,7.8,7.8,7.8h127.8
		C1081.5,566,1084.9,562.5,1084.9,558.1z M949,561.1c-1.6,0-2.8-1.2-2.8-2.8v-89.5c0-1.6,1.2-2.8,2.8-2.8h128.3
		c1.6,0,2.8,1.2,2.8,2.8v89.5c0,1.6-1.2,2.8-2.8,2.8L949,561.1L949,561.1z"/>
	<rect x="954.1" y="470" class="st1" width="111" height="86.3"/>
	<path class="st1" d="M1072.7,508.5c-2.5,0-4.9,2.1-4.9,4.8c0,2.8,2.1,4.9,4.9,4.9c2.5,0,4.8-2.1,4.8-4.9
		C1077.5,510.6,1075.5,508.5,1072.7,508.5z"/>
	<path class="st1" d="M151.5,152.2h90.2c4.4,0,7.8-3.5,7.8-7.8V16.5c0.2-4.4-3.5-7.8-7.8-7.8h-90.2c-4.4,0-7.8,3.5-7.8,7.8v127.8
		C143.7,148.8,147.1,152.2,151.5,152.2z M148.5,16.5c0-1.6,1.2-2.8,2.8-2.8h89.5c1.6,0,2.8,1.2,2.8,2.8v128.3h0.2
		c0,1.6-1.2,2.8-2.8,2.8h-89.8c-1.6,0-2.8-1.2-2.8-2.8L148.5,16.5L148.5,16.5z"/>
	<rect x="153.6" y="21.6" class="st1" width="86.3" height="111"/>
	<path class="st1" d="M196.5,135.4c-2.5,0-4.8,2.1-4.8,4.8c0,2.5,2.1,4.8,4.8,4.8c2.5,0,4.8-2.1,4.8-4.8
		C201.1,137.5,199.1,135.4,196.5,135.4z"/>
	<path class="st1" d="M985,108.6c0.7,2.8,3.5,4.2,6.2,3.5l1.4,4.8c0.7,2.5,3.5,4.2,6.2,3.5l1.4,4.8c0.7,2.5,3.5,4.2,6.2,3.5l9.7-2.8
		c2.5-0.7,4.2-3.5,3.5-6.2l-10.8-38.5c-0.7-2.5-3.5-4.2-6.2-3.5l-9.7,2.8c-2.5,0.7-4.2,3.5-3.5,6.2l-1.4-4.8
		c-7.4-26.8,8.1-54.5,34.8-61.8c26.5-7.4,54.2,8.3,61.6,34.8l1.4,4.8c-0.7-2.5-3.5-4.2-6.2-3.5l-9.7,2.8c-2.5,0.7-4.2,3.5-3.5,6.2
		l10.8,38.5c0.7,2.5,3.5,4.2,6.2,3.5l5.1-1.4c5.8,2.5,17.8,6,34.8,1.8c3.9-0.9,6.9-0.5,8.3,1.6c1.6,2.3,0.7,6.5-1.8,10.2
		c-6,8.1-20.3,14.5-42.9,9.2c0.2-0.9-0.5-1.8-1.2-1.8l-16.2-3.7c-0.2,0-0.2,0-0.5,0c-0.7,0-1.4,0.5-1.6,1.4v0.2l-2.1-0.5
		c-0.9-0.2-2.1-0.2-2.8,0c-0.7,0.2-0.9,0.7-0.5,1.2c0.5,0.5,1.6,1.2,2.5,1.4l2.1,0.5l-0.2,0.7c-0.2,0.9,0.5,1.8,1.2,2.1l16.2,3.7
		c0.2,0,0.2,0,0.5,0c0.7,0,1.4-0.5,1.6-1.4c6,1.4,11.5,2.1,16.4,2.1c14.8,0,24.7-5.8,29.8-12.5c3.7-5.8,4.4-11.3,2.1-14.8
		c-2.1-3.2-6.5-4.2-11.8-3c-12.7,3.2-22.4,1.6-28.6-0.2c2.1-1.2,3.2-3.5,2.5-5.8l-1.4-4.8c2.5-0.7,4.2-3.5,3.5-6.2l-1.4-4.8
		c2.8-0.7,4.2-3.5,3.5-6.2l-6.5-24c-9-31.8-42-50.5-74.1-41.8c-31.8,9-50.5,42-41.8,74.1L985,108.6z"/>
	<path class="st1" d="M760.3,119.9h38.5c4.6,0,8.5-3.9,8.5-8.5V17.2c-0.2-4.8-3.9-8.5-8.5-8.5h-38.5c-4.6,0-8.5,3.9-8.5,8.5v94.1
		C751.7,116,755.6,119.9,760.3,119.9z M755.9,17.2c0-3,2.5-5.5,5.5-5.5h37.4c3,0,5.5,2.5,5.5,5.5v93c0,3-2.5,5.5-5.5,5.5h-37.4
		c-3,0-5.5-2.5-5.5-5.5L755.9,17.2L755.9,17.2z"/>
	<rect x="758.6" y="27.6" class="st1" width="41.8" height="73.4"/>
	<path class="st1" d="M774.6,22.5h10.4c0.5,0,0.9-0.5,0.9-0.9s-0.5-0.9-0.9-0.9h-10.4c-0.5,0-0.9,0.5-0.9,0.9S774.1,22.5,774.6,22.5
		z"/>
	<path class="st1" d="M779.9,103.3c-2.8,0-5.3,2.3-5.3,5.3c0,3,2.3,5.3,5.3,5.3s5.3-2.3,5.3-5.3
		C784.9,105.6,782.6,103.3,779.9,103.3z"/>
	<g>
		<path class="st1" d="M875.2,635.6c4.6,0,8.5-3.9,8.5-8.5v-38.5c-0.2-4.9-3.9-8.5-8.5-8.5H781c-4.6,0-8.5,3.9-8.5,8.5v38.5
			c0,4.6,3.9,8.5,8.5,8.5L875.2,635.6L875.2,635.6L875.2,635.6z M776.6,626v-37.4c0-3,2.5-5.5,5.5-5.5h92.8c3,0,5.5,2.5,5.5,5.5V626
			h0.2c0,3-2.5,5.5-5.5,5.5h-93C779.2,631.5,776.6,629,776.6,626z"/>
		<rect x="792.3" y="587" class="st1" width="73.4" height="41.8"/>
		<path class="st1" d="M871.7,613.7c0.5,0,0.9-0.5,0.9-0.9v-10.4c0-0.5-0.5-0.9-0.9-0.9c-0.5,0-0.9,0.5-0.9,0.9v10.4
			C870.8,613.3,871.2,613.7,871.7,613.7z"/>
		<path class="st1" d="M789.6,607.7c-0.2-3-2.5-5.3-5.3-5.3c-3,0-5.3,2.3-5.3,5.3c0,2.8,2.3,5.3,5.3,5.3
			C787,613,789.6,610.7,789.6,607.7z"/>
	</g>
	<path class="st1" d="M219.4,212.9v1.4c0,2.1-1.2,3.2-3.2,3.2h-1.6c-0.2-1.4-1.6-2.1-3.7-2.1h-12.5c-1.8,0-3.5,0.7-3.7,2.1h-4.2
		c-2.1,0-3.9,2.1-3.9,4.2v0.9v1.4v48.9c0,2.1,1.8,3.2,3.9,3.2h98.3c2.1,0,3.9-1.4,3.9-3.2v-49.1v-1.4v-0.9c0.2-1.8-1.8-3.9-3.9-3.9
		h-25.6c-2.1,0-4.2-1.2-4.2-3.2v-1.4c0-2.1-1.2-3.2-3.2-3.2h-32.3C221.4,209.7,219.4,210.8,219.4,212.9z M239.9,264.4
		c-9.2,0-16.6-7.4-16.6-16.6s7.4-16.6,16.6-16.6s16.6,7.4,16.6,16.6S248.9,264.4,239.9,264.4z M227.7,217.5h24.2
		c1.2,4.8,5.8,7.8,11.3,7.8h21.7v42.7h-32.5c6.9-3.9,11.5-11.8,11.8-20.5c0-13.4-10.8-24.2-24.2-24.2s-24.2,10.8-24.2,24.2
		c0,8.8,4.6,16.6,11.8,20.5h-32.8v-42.7h21.7C221.9,225.4,226.3,222.4,227.7,217.5z"/>
	<path class="st1" d="M239.9,236c-1.4,0-2.8,0.2-4.2,0.7c1.2,0.5,2.1,1.6,2.1,3c0,1.8-1.6,3.5-3.5,3.5s-3.2-1.4-3.5-3.2
		c-1.8,2.1-2.8,4.6-2.8,7.6c0,6.5,5.3,11.8,11.8,11.8s11.8-5.3,11.8-11.8C251.4,241.3,246.1,236,239.9,236z"/>
	<path class="st1" d="M1036,410.7c6,0,10.8-4.8,10.8-10.8v-86.8c3.9-1.8,7.2-4.4,9.2-7.8c1.8-2.8,2.8-6.2,2.8-10.4
		c0.2-8.5-4.6-16.2-12-20.1v17.5l-10.8,6.2l-10.8-6.2v-17.5c-6.9,3.9-12.2,11.5-12.2,20.3c0,3.9,0.9,7.4,2.8,10.2
		c1.8,3.2,5.5,6,9.5,7.8v86.8C1025.2,405.8,1030,410.7,1036,410.7z M1035.8,402.6c-0.9-0.5-1.4-1.6-0.9-2.5s1.6-1.4,2.5-0.9
		c0.9,0.5,1.4,1.6,0.9,2.5C1037.6,402.6,1036.7,403,1035.8,402.6z M1036.9,396.1c0.5-0.2,0.9-0.2,1.2,0.2c0.2,0.5,0,0.9-0.2,1.2
		c-0.5,0.2-0.9,0-1.2-0.2C1036.5,396.8,1036.5,396.4,1036.9,396.1z M1041.3,401.7c-0.2,1.6-1.2,3.2-2.8,3.9c-0.5,0.2-0.9,0-1.2-0.2
		c-0.2-0.5,0-0.9,0.2-1.2c0.9-0.5,1.8-1.6,1.8-2.8c0-0.9-0.2-1.6-0.7-2.5v0.2c-0.2-0.5,0-0.9,0.2-1.2c0.5-0.2,0.9,0,1.2,0.5
		C1041.1,398.9,1041.5,400.3,1041.3,401.7z M1017.3,300.1c3.9,6.2,12.2,9.5,21.9,9.5c3.7,0,7.2-0.7,10.1-1.6c-1.4,0.7-3,2.3-5.1,2.3
		l-0.2,0.2c-1.8,0.7-3.7,1.2-5.8,1.4c-0.5,0-0.9,0-0.9,0.2v83.1c0,0-0.5,0-0.7,0c-0.5,0-1.2,0-1.2,0.2v-83.1c-0.9,0-0.9,0-2.1,0
		v83.8c-0.9,0.7-2.3,1.8-3,3.5c-0.2,0.5-0.2,1.2-0.2,1.8c0,0,0,0,0,0.2c0,0,0,0,0,0.2c0,2.5,1.4,4.6,3.7,5.5h-0.2
		c-3-0.9-5.3-3.5-5.3-6.7v-89.3C1023.5,309.6,1018.7,305.9,1017.3,300.1z"/>
	<polygon class="st1" points="359.9,237.8 353.9,237.8 353.9,256.8 359.9,256.8 359.9,249.6 365.9,249.6 365.9,256.8 371.7,256.8 
		371.7,237.8 365.9,237.8 365.9,243.8 359.9,243.8 	"/>
	<polygon class="st1" points="374.7,243.8 379.7,243.8 379.7,256.8 385.7,256.8 385.7,243.8 391.5,243.8 391.5,237.8 374.7,237.8 	
		"/>
	<polygon class="st1" points="400.5,247.1 404.4,253.8 404.7,253.8 408.4,247.1 408.4,256.8 415.5,256.8 415.5,237.8 408.6,237.8 
		404.7,244.3 400.7,237.8 394.5,237.8 394.5,256.8 400.5,256.8 	"/>
	<polygon class="st1" points="433.3,249.6 424.3,249.6 424.3,237.8 418.3,237.8 418.3,256.8 433.3,256.8 	"/>
	<path class="st1" d="M441.8,264.6h-97.1l8.8,99.2l39.7,11.1l39.9-11.1L441.8,264.6z M423.4,288.6l-0.5,6l-0.2,2.8h-29.3h-17.1
		l1.2,12h16.2h24.9h3.2l-0.2,3.5l-2.8,32.3v2.1l-24.7,6.9h-0.2l-25.2-6.9l-1.6-18.9h5.5h6.7l0.9,9.7l13.6,3.5h0.2l13.4-3.5l1.2-15.7
		h-15h-27.2l-3-33.5l-0.2-3.2h30.5H424L423.4,288.6z"/>
	<path class="st1" d="M1093.5,612.1l-1.8-1.6l-2.3-0.7l-22.6-6.2l-5.3-1.4l-3.9,3.7c-2.8,2.5-5.5,3.7-8.1,3.7c-3.7,0-6.9-2.8-7.4-3
		l-3.9-4.4l-5.5,1.8l-18.7,5.1l-2.3,0.7l-1.8,1.6L973,644.2l-6.7,6l5.1,7.2l13.6,19.4l5.3,7.6l8.1-4.9l6.9-4.2v42.5v9.9h9.9
		l69.2-0.2h9.9v-9.9v-42.5l7.8,4.4l7.8,4.4l5.1-7.4l13.4-19.4l4.8-7.2l-5.8-6L1093.5,612.1z M1107.5,670.7l-22.6-12.9l-0.2,59.5
		l-69.2,0.2v-60.2l-21.9,13.4l-13.6-19.4l36.7-32.8l18.7-5.1c0,0,5.8,6,14.3,6c4.4,0,9.5-1.6,14.5-6.2l22.6,6.2l34.2,31.8
		L1107.5,670.7z"/>
	<path class="st1" d="M333.8,485.7h62.8c1.6,0,2.8-1.4,2.8-2.8V437c0.2-1.6-1.2-2.8-2.8-2.8h-62.8c-1.6,0-2.8,1.4-2.8,2.8v45.9
		C331.1,484.5,332.4,485.7,333.8,485.7z M339.8,482.2v-0.5l17.3-17.8l3.9,3.7c0.7,0.7,1.4,1.2,2.3,1.4c0.9,0.2,1.8,0.5,2.5,0.5
		c0.9,0,1.6,0,2.5-0.2c0.7-0.2,1.4-0.5,1.8-0.7c0.2,0,0.2-0.2,0.5-0.2l3.9-3.9l17.3,17.8L339.8,482.2L339.8,482.2L339.8,482.2z
		 M395.7,477.8l-17.1-17.3l17.1-17.1V477.8z M392.2,439.3L368,463.7c-0.2,0.2-0.5,0.5-0.9,0.7c-0.5,0-0.7,0.2-1.2,0.2
		c-0.2,0-0.5,0-0.9,0c-0.2,0-0.5-0.2-0.7-0.5l-24.5-24.9L392.2,439.3L392.2,439.3z M336.1,443.2h0.2l17.3,17.1l-17.3,17.5h-0.2
		V443.2z"/>
	<path class="st1" d="M86.7,209.7v19.4c0,2.5,1.8,4.6,4.6,4.6h39c2.5,0,5.1-2.1,5.1-4.6v-2.3h3c1.4,0,2.1-0.7,2.1-2.1v-10.8
		c-0.2-1.2-0.9-1.8-2.1-1.8h-3v-2.3c0-2.5-2.5-4.6-5.1-4.6h-39C88.8,205.1,86.7,207.1,86.7,209.7z M91.8,209.9h38.8v18.9h-0.2H91.8
		V209.9z"/>
	<rect x="94.8" y="213.1" class="st1" width="4.8" height="12.9"/>
	<rect x="103.5" y="213.1" class="st1" width="4.8" height="12.9"/>
	<path class="st1" d="M599.4,52.5h5.8v11.8c0,1.4,1.4,2.8,2.8,2.8c0.7,0,1.6-0.7,2.1-0.7l13.8-13.8h5.3c0,1.6,0.5,3,1.4,4.2
		c0.9,0.9,2.1,1.8,3.7,1.8H652l10.8,10.8c0.5,0,1.2,0.5,1.6,0.5c1.2,0,2.3-1.2,2.3-2.3v-9h4.4c3,0,5.5-2.8,5.5-6V23.5
		c-0.2-3-2.5-5.5-5.8-5.5h-18.2V8.7c0-3.9-2.8-6.7-6.7-6.7h-46.6c-3.9,0-7.2,2.8-7.2,6.7v36.7c0,1.8,0.7,3.9,2.1,5.1
		C595.7,51.8,597.3,52.5,599.4,52.5z M652.7,23.9H667c1.4,0,2.5,1.2,2.5,2.5c0,1.2-1.2,2.3-2.5,2.3h-14.3V23.9z M652.7,34.8H667
		c1.4,0,2.5,1.2,2.5,2.5c0,1.2-1.2,2.3-2.5,2.3h-14.3V34.8z M652.7,45.2v0.2H667c1.4,0,2.5,1.2,2.5,2.5c0,1.6-1.2,2.5-2.5,2.5h-15.9
		C652.3,48.4,652.7,47,652.7,45.2z M597.3,8.9c0-1.2,1.2-2.1,2.3-2.1h46.2c1.2,0,2.1,0.7,2.1,2.1v36c0,1.4-0.7,2.5-2.1,2.5h-23.1
		c-0.7,0-1.4,0.2-1.8,0.7l-10.6,10.4v-9c0-1.4-0.9-2.1-2.3-2.1h-8.3c-1.4,0-2.3-1.4-2.3-2.5L597.3,8.9L597.3,8.9z"/>
	<path class="st1" d="M604,17.9h36.2c1.4,0,2.5-1.2,2.5-2.5s-1.2-2.5-2.5-2.5H604c-1.4,0-2.5,1.2-2.5,2.5S602.6,17.9,604,17.9z"/>
	<path class="st1" d="M604,28.8h36.2c1.4,0,2.5-1.2,2.5-2.5s-1.2-2.5-2.5-2.5H604c-1.4,0-2.5,1.2-2.5,2.5S602.6,28.8,604,28.8z"/>
	<path class="st1" d="M604,39.8h36.2c1.4,0,2.5-1.2,2.5-2.5c0-1.6-1.2-2.5-2.5-2.5H604c-1.4,0-2.5,1.2-2.5,2.5S602.6,39.8,604,39.8z
		"/>
	<path class="st1" d="M869.9,83.5c5.5,3.7,12.5,5.8,19.6,5.8c23.5,0,36.2-19.4,36.2-36.2c0-0.5,0-1.2,0-1.6c2.5-1.8,4.4-4.2,6.5-6.7
		c-2.1,1.2-4.8,1.6-7.4,2.1c2.5-1.6,4.6-4.2,5.5-7.2c-2.5,1.4-5.3,2.5-8.1,3c-2.3-2.5-5.5-3.9-9.2-3.9c-7.2,0-12.7,5.8-12.7,12.7
		c0,0.9,0,2.1,0.2,3c-10.6-0.5-20.1-5.5-26.3-13.4c-1.2,1.8-1.6,4.2-1.6,6.5c0,4.4,2.3,8.3,5.8,10.6c-2.1,0-3.7-0.7-5.8-1.6
		c0,0,0,0,0,0.2c0,6.2,4.4,11.3,10.2,12.5c-1.2,0.2-2.3,0.5-3.5,0.5c-0.9,0-1.6,0-2.5-0.2c1.6,5.1,6.2,8.8,12,8.8
		c-4.4,3.5-9.9,5.5-15.9,5.5C871.9,83.7,870.8,83.7,869.9,83.5z"/>
	<path class="st1" d="M701.6,688.3h-11.3L679,703c0,0,11.8-3.5,18.7-1.8L679,725.4l24.7-19.2c3.5,7.8-2.1,19.2-2.1,19.2l15-11.3
		v-11.3l18.5-18.7l3.7-18.7l-18.5,3.9L701.6,688.3z"/>
	<path class="st1" d="M100.5,489.6c-10.2,0-19.4,4.6-25.2,12l9.2,15.9c1.6-6.7,8.1-12,15.9-12c0.5,0,0.9,0,1.4,0h26.3
		C122.7,495.6,112.3,489.6,100.5,489.6z"/>
	<path class="st1" d="M132.6,522.1c0-4.2-0.7-8.5-2.1-11.5h-18.5c3,3,4.8,6.9,4.8,11.5c0,3.5-1.2,6.5-3,9.2l-13.2,22.8
		C118.3,554,132.6,539.7,132.6,522.1z"/>
	<path class="st1" d="M100.5,510.1c-6.5,0-11.8,5.3-11.8,11.8s5.3,11.8,11.8,11.8s11.8-5.3,11.8-11.8S107,510.1,100.5,510.1z"/>
	<path class="st1" d="M68.2,521.9c0,16.2,12,29.5,27.5,31.8l9.2-16.4c-1.4,0.9-3,0.9-4.4,0.9c-6.7,0-12.2-3.7-15-9.2l-13.2-22.8
		C69.8,510.8,68.2,516.1,68.2,521.9z"/>
	<path class="st1" d="M1101.5,422.9c0.9,0,2.1-0.2,3.5-0.9c1.4-0.7,2.8-0.9,3.7-0.9c1.2,0,2.5,0.2,3.9,0.9c1.6,0.5,2.8,0.9,3.7,0.9
		c2.3,0,4.6-1.8,6.9-5.3c1.4-2.8,2.5-5.3,3.2-7.2c-1.6,0-3-1.6-4.2-3.2c-1.2-1.9-1.8-3.7-1.8-5.8c0-2.1,0.5-3.9,1.8-5.5
		c0.7-0.9,1.6-1.8,3-3.2c-0.9-1.2-1.8-2.1-2.8-2.8c-1.6-1.2-3.5-1.6-5.8-1.6c-1.2,0-2.8,0.2-4.6,0.9c-1.8,0.7-3,0.9-3.7,0.9
		s-1.8-0.2-3.7-0.7c-1.8-0.5-3.5-0.7-4.6-0.7c-3,0-5.5,1.4-7.6,3.9c-2.1,2.5-3,6-3,9.9c0,4.4,1.4,8.8,3.9,13.4
		C1096,420.6,1098.8,422.9,1101.5,422.9z"/>
	<path class="st1" d="M1109.8,382c-1.4,1.8-2.1,4.2-2.1,6.9c1.2,0,2.1-0.2,2.8-0.5c0.7-0.2,1.6-0.9,2.8-1.8c1.2-1.2,1.8-2.3,2.5-3.7
		c0.5-1.4,0.7-2.5,0.7-3.5c0,0,0-0.2,0-0.5c0-0.2,0-0.2,0-0.5v-0.2c0-0.2,0-0.2,0-0.2C1113.3,378.8,1111.2,380.2,1109.8,382z"/>
	<polygon class="st1" points="84.4,68.7 96.6,8.2 28.3,8.2 25.5,21.6 80.5,21.6 78.6,30.6 23.9,30.6 21.2,43.3 76.1,43.3 72.8,59 
		50.9,66.4 31.8,59 33.2,52.3 19.5,52.3 16.3,68.5 47.9,80.7 	"/>
	<path class="st1" d="M368.9,155c0.7-0.7,0.7-1.4,0.7-2.3v-13.8c0.2-0.9,0-1.6-0.5-2.3c-0.7-0.7-1.2-0.9-2.1-0.9s-1.6,0.2-2.3,0.9
		c-0.7,0.7-0.9,1.4-0.9,2.3v13.8c0,0.9,0.2,1.6,0.7,2.3c0.7,0.7,1.2,0.9,2.1,0.9C367.5,155.9,368.2,155.7,368.9,155z"/>
	<path class="st1" d="M350.9,170.4c0.7,0.7,1.4,0.9,2.3,0.9s1.8-0.2,2.5-0.9s1.2-1.4,1.2-2.3v-6.7h1.8c0.9,0,1.6-0.5,2.3-1.2
		s0.7-1.8,0.7-2.8v-20.8h-28.8v20.8h0.2c0,0.9,0.2,2.1,0.9,2.8c0.7,0.7,1.4,1.2,2.5,1.2h2.3v6.9c0,0.9,0.2,1.4,0.9,2.1
		c0.7,0.7,1.4,0.9,2.3,0.9s1.6-0.2,2.3-0.9s0.7-1.4,0.7-2.3v-6.7h4.8v6.7C350,169.1,350.2,169.8,350.9,170.4z"/>
	<path class="st1" d="M334.5,128.2c-1.4,2.1-2.1,4.6-2.1,6.7H362c0-2.1-0.7-4.6-2.1-6.7c-0.9-2.3-2.8-3.7-5.1-4.8l2.3-4.2
		c0.2-0.2,0-0.5-0.2-0.7c-0.2-0.2-0.5,0-0.7,0.2l-2.3,4.2c-2.1-0.9-4.2-1.4-6.5-1.4s-4.4,0.5-6.5,1.4l-2.3-4.2
		c-0.2-0.2-0.5-0.2-0.7-0.2c-0.2,0.2-0.2,0.2-0.2,0.7l2.3,4.2C337.7,124.5,335.9,126.1,334.5,128.2z M353.4,127.5
		c0.2-0.2,0.5-0.5,0.9-0.5c0.2,0,0.7,0.2,0.9,0.5c0.2,0.2,0.5,0.5,0.5,0.9c-0.2,0.5-0.2,0.7-0.5,0.9c-0.2,0.2-0.5,0.5-0.9,0.5
		c-0.2,0-0.7-0.2-0.9-0.5c-0.2-0.2-0.5-0.5-0.5-0.9C353,128,353.2,127.8,353.4,127.5z M339.8,127.5c0.2-0.2,0.5-0.5,0.9-0.5
		c0.2,0,0.7,0.2,0.9,0.5c0.2,0.2,0.5,0.5,0.5,0.9s0,0.7-0.5,0.9c-0.2,0.2-0.5,0.5-0.9,0.5s-0.7-0.2-0.9-0.5
		c-0.2-0.2-0.5-0.5-0.5-0.9C339.4,128.2,339.6,127.8,339.8,127.5z"/>
	<path class="st1" d="M332,138.8c0-0.9-0.5-1.6-1.2-2.3c-0.5-0.7-1.4-0.9-2.3-0.9c-0.9,0-1.6,0.2-2.3,0.9s-0.9,1.4-0.9,2.3v13.8
		c0,0.9,0.5,1.6,0.9,2.3c0.7,0.7,1.4,0.9,2.3,0.9s1.8-0.2,2.3-0.9c0.7-0.7,1.2-1.4,1.2-2.3V138.8z"/>
	<path class="st1" d="M175.5,388H251v-63.5h-75.5V388z M213.1,363.4h18.9v6h-18.9V363.4z M187.5,363.4h6.9v-6.9h6v-6h-6v-6.9h-6.9
		v-6h6.9v6h6v6.9h6.9v6h-6.9v6.9h-6v6h-6.9V363.4z"/>
	<path class="st1" d="M172.8,313.5c-4.8,0-9,3.9-9,9V391c0,4.9,3.9,9,9,9h81.5c4.8,0,9-3.9,9-9v-68.5c-0.2-5.1-4.2-9-9-9H172.8z
		 M257.7,322.5V391h0.2c0,2.1-1.8,3.9-3.9,3.9h-81.5c-2.1,0-3.9-1.8-3.9-3.9v-68.5c0-2.1,1.8-3.9,3.9-3.9h81.2
		C255.8,318.6,257.7,320.4,257.7,322.5z"/>
	<path class="st1" d="M520.3,247.1c-0.9-2.3-2.3-4.4-3.9-6s-3.7-3-6-3.9c-2.3-0.9-4.8-1.4-7.2-1.4c-2.3,0-4.8,0.5-7.2,1.4
		c-2.3,0.9-4.4,2.3-6,3.9c-1.6,1.6-3,3.7-3.9,6s-1.4,4.8-1.4,7.2c0,2.3,0.5,4.8,1.4,7.2s2.3,4.4,3.9,6c1.6,1.6,3.7,3,6,3.9
		s4.8,1.4,7.2,1.4c3.9,0,7.4-1.2,10.6-3.2l9,9c0.7,0.7,1.4,0.9,2.3,0.9s1.6-0.2,2.3-0.9s0.9-1.4,0.9-2.3s-0.2-1.8-0.9-2.3l-9-9
		c2.3-3.2,3.2-6.7,3.2-10.6C521.7,251.7,521.2,249.4,520.3,247.1z M511.3,262.5c-2.3,2.3-5.1,3.5-8.3,3.5s-6-1.2-8.3-3.5
		c-2.3-2.3-3.5-5.1-3.5-8.3s1.2-6,3.5-8.3s5.1-3.5,8.3-3.5s6,1.2,8.3,3.5c2.3,2.3,3.5,5.1,3.5,8.3
		C514.7,257.2,513.6,260.2,511.3,262.5z"/>
	<path class="st1" d="M1084.9,229.1c10.8,0.5,19.4,5.5,24.2,13.8c9-6.2,14.8-16.6,14.8-28.2c-0.2-19.2-15.5-34.6-34.4-34.6
		s-34.4,15.5-34.4,34.4c0,8.8,3.2,16.6,8.5,22.6C1069,231.8,1076.4,228.8,1084.9,229.1z M1105.7,226.8c0,0.9-1.6,1.4-2.8,0.7
		c-7.8-4.8-17.8-6-29.5-3.2c-1.2,0.2-2.3-0.5-2.5-1.6c-0.2-1.2,0.5-2.3,1.6-2.5c12.9-3,23.8-1.6,32.8,3.7
		C1106.1,224.4,1106.8,225.8,1105.7,226.8z M1110.3,217.1c-0.7,1.2-2.3,1.6-3.7,0.9c-9-5.5-23.1-7.2-33.7-3.9
		c-1.4,0.5-2.8-0.5-3.2-1.8c-0.5-1.4,0.5-2.8,1.8-3.2c12.2-3.7,27.7-1.8,38.1,4.4C1110.8,214.3,1111.2,215.9,1110.3,217.1z
		 M1069.7,197c12-3.7,31.8-3,44.3,4.6c1.6,0.9,2.1,2.8,1.2,4.4c-0.9,1.6-3,1.8-4.4,0.9c-10.8-6.5-28.8-7.2-39.2-3.9
		c-1.6,0.5-3.5-0.5-3.9-2.1C1067.1,199.3,1068.1,197.4,1069.7,197z"/>
	<path class="st1" d="M1097.8,248c-2.5-5.5-7.2-8.5-13.4-8.5c-4.8-0.2-8.8,1.6-11.8,5.3c4.8,2.8,10.6,4.4,16.6,4.4
		C1092.3,249.1,1095.1,248.7,1097.8,248z"/>
	<path class="st1" d="M705.3,400.3h-0.9l-0.2,0.2c-0.2,0.2-0.2,0.2-0.5,0.5c-0.2,0.2-0.5,0.2-0.7,0.2l-0.9,0.2h-7.8l-5.8-0.2h-3
		l-0.5,0.2h-3.5c-3.5,0-5.3-0.2-5.5-0.2l-1.4-0.9h-2.1v10.2c0.2,0.2,0.7,0.7,1.4,1.2c0.2,0,0.2-0.2,0.5-0.5c0.2-0.2,0.5-0.5,0.5-0.9
		c0.2-0.7,0.5-1.4,0.7-2.3c0.2-0.9,0.5-1.6,0.7-2.1c0.2-0.5,0.5-0.7,0.7-0.9c0.2-0.2,0.9-0.5,1.8-0.7c0.9-0.2,1.8-0.5,2.8-0.5
		c1.8,0,3.2,0,3.9,0.2c0.2,0,0.2,0,0.5,0.2c0,0,0.2,0.2,0.2,0.5c0,0.2,0,0.7,0,1.6c0,0.9,0,1.6,0,2.8c0,0.9,0,2.1,0,3.2l0.2,11.3
		c0,4.4,0,8.1-0.2,11.5c0,0.7-0.2,1.2-0.2,1.4c-0.5,0.2-1.6,0.7-4.2,1.4c-0.9,0.2-2.1,0.7-2.1,1.4v0.2v0.7c0,0,0,0.2,0,0.7
		c0.5,0,0.9,0,1.9,0c2.5-0.2,4.6-0.5,6.2-0.5c3,0,5.1,0,6.2,0.2c1.4,0.2,3,0.2,5.1,0.2c0.5,0,0.7,0,0.9,0c0-0.2,0-0.7,0-0.7
		s0-0.5-0.2-1.4c-0.5-0.2-0.7-0.2-1.4-0.5c-0.2,0-0.7-0.2-1.2-0.2c-0.5-0.2-0.9-0.2-1.2-0.2s-0.5-0.2-0.5-0.2
		c-0.7-0.2-1.6-0.5-2.3-0.9c-0.2-0.7-0.5-1.4-0.2-2.3v-3.9l-0.2-9.5v-8.8l0.2-4.2c0-0.7,0.2-1.8,0.5-3.7c0.7,0,1.2-0.2,1.9-0.2
		c0.7,0,1.8,0,3,0s2.1,0,2.8,0c0.7,0,0.9,0,1.2,0c0.2,0,0.5,0.2,0.7,0.5c0,0,0,0.2,0.2,0.7c0,0.5,0.2,1.2,0.2,1.9
		c0,0.7,0.2,1.2,0.5,1.6c0.5,1.6,0.9,2.5,1.4,3.5c0.5,0,1.2-0.2,1.8-0.5c0-0.2,0-0.7,0-1.4v-1.6l-0.9-2.3c0-2.3-0.2-3.5-0.2-3.5
		v-2.8C706,400.3,705.6,400.3,705.3,400.3z"/>
	<path class="st1" d="M718.7,407.4c0.7,0,0.9-0.2,1.2-0.7c0.2-0.2,0-0.9-0.2-1.4l-3.5-4.4c-0.5-0.5-0.7-0.7-1.4-0.7
		c-0.7,0-0.9,0.2-1.4,0.7l-3.2,4.4c-0.5,0.5-0.5,0.9-0.2,1.2c0.2,0.2,0.5,0.7,1.2,0.7h2.1V434h-2.1c-0.7,0-0.9,0.2-1.2,0.5
		c-0.2,0.2,0,0.7,0.2,1.2l3.2,4.4c0.5,0.5,0.7,0.7,1.4,0.7c0.7,0,0.9-0.2,1.4-0.7l3.5-4.4c0.5-0.5,0.5-0.9,0.2-1.2
		c-0.2,0-0.7-0.2-1.2-0.2h-1.6v-26.8L718.7,407.4L718.7,407.4z"/>
	<path class="st1" d="M314.2,65.7c0.7,2.8,1.6,5.3,2.8,7.4c1.2,2.1,2.8,3.9,4.4,5.5c1.8,1.6,3.7,3,5.8,3.9s4.6,1.8,7.2,2.5
		c2.8,0.7,5.5,1.2,8.3,1.4s6,0.5,9.2,0.5c3.5,0,6.5-0.2,9.5-0.5c2.8-0.2,5.5-0.7,8.3-1.4c2.8-0.7,5.1-1.4,7.4-2.5
		c2.1-0.9,4.2-2.3,6-3.9s3.2-3.5,4.6-5.5c1.2-2.1,2.1-4.6,2.8-7.4c0.7-2.8,0.9-6,0.9-9.7c0-6.7-2.3-12.2-6.5-16.8
		c0.2-0.7,0.5-1.4,0.7-2.1c0.2-0.7,0.5-1.8,0.5-3.2c0.2-1.4,0-3-0.2-5.1c-0.2-1.8-0.9-3.7-1.6-5.8h-0.5c-0.5,0-1.2,0-2.1,0
		s-2.1,0.2-3.2,0.7c-1.2,0.2-2.8,0.9-4.8,2.1c-1.8,0.9-3.9,2.3-6.2,3.7c-3.7-0.9-8.8-1.6-15.2-1.6s-11.5,0.5-15.2,1.6
		c-2.1-1.4-4.2-2.8-6.2-3.7s-3.5-1.6-4.6-2.1c-1.2-0.2-2.3-0.5-3.2-0.7c-0.9,0-1.6-0.2-1.8,0s-0.5,0-0.7,0.2
		c-0.7,1.8-1.4,3.9-1.6,5.8c-0.2,1.8-0.5,3.5-0.2,5.1c0.2,1.6,0.2,2.5,0.5,3.2s0.5,1.6,0.7,2.3c-4.2,4.6-6.2,9.7-6.2,16.6
		C313.3,59.2,313.5,62.7,314.2,65.7z M328.1,54.8c0.9-0.9,2.1-1.6,3.5-2.1c1.4-0.5,2.8-0.7,4.4-0.7s3.2,0,4.8,0s3.5,0.2,5.5,0.5
		c2.3,0.2,4.2,0.2,5.8,0.2c1.6,0,3.5,0,5.8-0.2s4.2-0.2,5.8-0.5c1.6,0,3.2,0,4.8,0s3.2,0.2,4.4,0.7c1.4,0.5,2.5,1.2,3.5,2.1
		c3.2,3,5.1,6.5,5.1,10.2c-0.2,2.3-0.5,4.4-1.2,6c-0.5,1.6-1.2,3-2.1,4.2s-2.1,2.1-3.5,3c-1.6,0.7-3,1.4-4.4,1.8
		c-1.4,0.5-3.2,0.7-5.5,0.9c-2.3,0.2-4.2,0.5-6,0.5s-3.9,0-6.7,0s-5.1,0-6.7,0c-1.8,0-3.7-0.2-6-0.5c-2.3-0.2-4.2-0.7-5.5-0.9
		c-1.4-0.5-3-1.2-4.4-1.8c-1.6-0.7-2.8-1.8-3.5-3c-0.9-1.2-1.6-2.8-2.1-4.4c-0.5-1.6-0.9-3-0.9-6C323,61.8,324.6,57.8,328.1,54.8z"
		/>
	<ellipse class="st1" cx="337.5" cy="64.3" rx="4.8" ry="7.4"/>
	<ellipse class="st1" cx="366.8" cy="64.3" rx="4.8" ry="7.4"/>
	<path class="st1" d="M634.5,257.9c0.9-0.9,1.4-2.3,1.6-3.9c0.5-1.4,0.2-3.2-0.5-5.1s-1.6-3.5-2.8-4.8l-3.9-3.9
		c-1.4-1.4-2.8-2.3-4.8-2.8c-1.8-0.7-3.7-0.9-5.3-0.7s-3,0.7-3.9,1.6l-35.8,35.8l-6,25.6l25.6-6L634.5,257.9z M624.1,263.7l-21,21
		c-0.7-0.9-1.4-2.1-1.8-3.5c-0.5-1.4-0.7-2.8-0.7-3.9s0-2.3,0.2-3.2l20.5-20.5l0.5,0.5c1.2,1.2,2.1,2.8,2.3,4.6
		C624.8,260.7,624.6,262.3,624.1,263.7z M616.5,241.8c0.9-1.2,2.5-1.4,4.8-1.2c2.3,0.2,4.2,1.2,5.5,2.5l3,3c1.4,1.4,2.3,3.2,2.5,5.5
		c0.2,2.3,0,3.9-1.2,5.1l-2.8,3c-0.5-3-1.6-5.5-3.5-7.6l-3.9-3.9c-1.8-1.8-4.4-3-7.6-3.5L616.5,241.8z M608.4,249.6
		c0.9-0.9,2.5-1.4,4.8-1.2c2.3,0.2,4.2,1.2,5.5,2.5l0.5,0.5L598.7,272c-0.9,0.2-1.8,0.2-3.2,0.2c-1.2,0-2.5-0.2-3.9-0.7
		c-1.4-0.5-2.5-1.2-3.5-1.8L608.4,249.6z M587.9,292.3c-0.7-1.8-1.6-3.5-2.8-4.6c-1.2-1.2-2.5-2.1-4.6-2.8l1.9-9.5l3.5-3.5
		c1.4,1.2,3.2,2.1,5.3,2.8c2.1,0.7,3.9,1.2,5.5,1.2c0,1.6,0.5,3.7,1.2,5.8c0.7,2.1,1.6,3.9,2.8,5.3l-3.2,3.5L587.9,292.3z"/>
	<path class="st1" d="M495.8,84.8c14.3,0,25.4-4.8,25.4-10.6V68h4.4c6.9,0,12.7-5.8,12.7-12.9s-5.5-12.9-12.7-12.9h-4.4v-6.2
		c0-6-11.1-10.6-25.4-10.6s-25.4,4.8-25.4,10.6v38.3C470.4,80.2,481.5,84.8,495.8,84.8z M521.2,50h5.5c1.8,0,3.2,0.7,3.7,1.4
		c0.7,0.7,1.6,1.6,1.6,3.5c0,2.1-0.9,3-1.6,3.7s-1.8,1.4-3.7,1.4h-5.5V50z M482,33.4c3.9-1.4,8.8-2.1,13.8-2.1
		c5.1,0,9.9,0.7,13.8,2.1c2.5,0.9,3.9,1.6,4.8,2.3c-0.9,0.7-2.3,1.6-4.8,2.3c-3.9,1.4-8.8,2.1-13.8,2.1c-5.1,0-9.9-0.7-13.8-2.1
		c-2.5-0.9-3.9-1.6-4.8-2.3C477.8,35,479.4,34.3,482,33.4z"/>
	<path class="st1" d="M520,386.7c6,5.5,14.1,8.8,22.2,8.8c9.5,0,18.5-4.2,24.7-11.1c12.5-13.6,11.3-34.6-2.3-47.1
		c-6-5.5-14.1-8.5-22.2-8.5c-9.5,0-18.5,3.9-24.7,10.8c-6,6.7-9,15.2-8.5,24C509.7,372.4,513.6,380.7,520,386.7z M562.5,380.2
		c-4.6,5.1-10.6,8.1-17.1,8.8c0-0.7,0.2-1.6,0.2-2.3l0.9,0.2c0.9,0.2,1.6-0.5,1.8-1.2v-0.2c0.2-0.7,0-1.2-0.5-1.6
		c-0.2-0.2-0.5-0.2-0.7-0.5l-0.9-0.2c0.5-1.4,0.9-2.8,1.6-3.9l0.7,0.5c0.7,0.5,1.6,0,2.1-0.7v-0.2c0.2-0.7,0.2-1.4-0.2-1.8l-0.2-0.2
		l-0.7-0.5c0.7-1.2,1.6-2.3,2.5-3.5l0.7,0.5c0.7,0.5,1.6,0.5,2.3-0.2l0.2-0.2c0.5-0.7,0.5-1.6-0.2-2.3l-0.7-0.7
		c0.9-0.9,2.1-1.8,3.2-2.8l0.5,0.7l0.2,0.2c0.5,0.5,1.4,0.5,2.1,0.2h0.2c0.7-0.5,0.9-1.4,0.5-2.1l-0.5-0.7c1.2-0.7,2.5-1.4,3.9-1.8
		l0.2,0.7c0,0.2,0.2,0.5,0.5,0.7c0.5,0.5,1.2,0.5,1.6,0.2h0.2c0.9-0.2,1.4-1.2,0.9-2.1l-0.2-0.7c0.5-0.2,1.2-0.2,1.8-0.5
		C569.6,368.4,567.3,375.1,562.5,380.2z M541,347.2l-0.2-0.2l-0.7-0.5c0.7-1.4,1.4-3,1.8-4.6l0.9,0.2c0.5,0,0.7,0,1.2-0.2
		s0.7-0.7,0.9-1.2v-0.2c0.2-0.7,0-1.4-0.5-1.8c-0.2-0.2-0.5-0.2-0.7-0.5l-0.9-0.2c0.2-0.9,0.2-1.6,0.5-2.5c6.5,0,12.7,2.3,17.8,6.9
		s8.1,10.6,8.8,17.1c-0.9,0.2-1.6,0.5-2.5,0.7l-0.2-0.9c0-0.2-0.2-0.5-0.5-0.7c-0.5-0.5-1.2-0.5-1.8-0.2h-0.2
		c-0.5,0.2-0.9,0.5-1.2,0.9c-0.2,0.5-0.2,0.7,0,1.2l0.2,0.9c-1.6,0.7-3,1.4-4.4,2.1l-0.5-0.7l-0.2-0.2c-0.5-0.5-1.4-0.5-2.1,0
		l-0.2,0.2c-0.5,0.2-0.7,0.7-0.7,1.2s0,0.9,0.2,1.2l0.5,0.7c-1.4,0.9-2.5,2.1-3.7,3.2l-0.7-0.7c-0.7-0.5-1.6-0.5-2.3,0.2l-0.2,0.2
		c-0.7,0.7-0.7,1.9,0,2.3l0.7,0.7c-0.9,1.2-1.8,2.5-2.8,3.9l-0.7-0.5c-0.2-0.2-0.7-0.2-1.2-0.2c-0.5,0.2-0.9,0.5-1.2,0.9v0.2
		c-0.5,0-0.5,0.7,0,1.4l0.2,0.2l0.7,0.5c-0.7,1.4-1.2,3-1.6,4.6l-0.9-0.2c-0.5,0-0.7,0-1.2,0.2s-0.7,0.7-0.9,1.2v0.2
		c-0.2,0.7,0,1.4,0.5,1.8c0.2,0.2,0.5,0.2,0.7,0.5l0.9,0.2c-0.2,0.9-0.2,2.1-0.5,3.2c-6.5,0-13.2-2.3-18.2-6.9
		c-5.3-4.6-8.1-11.1-8.8-17.5c0.9-0.2,2.1-0.5,3-0.7l0.2,0.9c0,0.2,0.2,0.5,0.5,0.7c0.5,0.5,1.2,0.5,1.8,0.2h0.2
		c0.5-0.2,0.9-0.5,1.2-0.9s0.2-0.7,0-1.2l-0.2-0.7c1.6-0.7,3-1.4,4.4-2.1l0.5,0.7l0.2,0.2c0.5,0.5,1.4,0.5,2.1,0l0.2-0.2
		c0.5-0.2,0.7-0.7,0.7-1.2s0-0.9-0.2-1.2l-0.5-0.7c1.4-0.9,2.5-2.1,3.7-3.2l0.7,0.7c0.7,0.5,1.6,0.5,2.3-0.2l0.2-0.2
		c0.7-0.7,0.7-1.8,0-2.3c0,0-0.2-0.2-0.7-0.5c0.9-1.2,1.8-2.5,2.8-3.9l0.7,0.5c0.2,0.2,0.7,0.2,1.2,0.2c0.5-0.2,0.9-0.5,1.2-0.9
		v-0.2C541.7,348.6,541.5,347.7,541,347.2z M522.3,343.7c4.6-5.1,10.8-8.1,17.3-8.8c0,0.7-0.2,1.2-0.2,1.8l-0.9-0.2
		c-0.9-0.2-1.6,0.5-1.8,1.2v0.2c-0.2,0.7,0,1.2,0.5,1.6c0.2,0.2,0.5,0.2,0.7,0.5l0.9,0.2c-0.5,1.4-0.9,2.8-1.6,3.9l-0.7-0.5
		c-0.7-0.5-1.6,0-2.1,0.7v0.2c-0.2,0.7-0.2,1.4,0.2,1.8l0.2,0.2l0.7,0.5c-0.7,1.2-1.6,2.3-2.5,3.5c-0.5-0.2-0.7-0.5-0.7-0.5
		c-0.7-0.5-1.6-0.5-2.3,0.2v0.2c-0.5,0.7-0.5,1.6,0,2.3l0.7,0.5c-0.9,0.9-2.1,1.8-3.2,2.8l-0.5-0.7l-0.2-0.2
		c-0.5-0.5-1.4-0.5-2.1-0.2h-0.2c-0.7,0.5-0.9,1.4-0.5,2.1l0.5,0.7c-1.2,0.7-2.5,1.4-3.9,1.8l-0.2-0.7c0-0.2-0.2-0.5-0.5-0.7
		c-0.5-0.5-1.2-0.5-1.6-0.2H518c-0.9,0.2-1.4,1.2-0.9,2.1l0.2,0.7c-0.7,0.2-1.6,0.5-2.3,0.5C515.4,355.3,517.7,348.8,522.3,343.7z"
		/>
	<path class="st1" d="M361,577c2.5-11.3,0.9-23.8-3.9-35.1c-11.3-4.8-23.8-6.5-35.1-4.2c-10.8,2.1-20.5,7.6-28.6,15.5
		c-7.8,7.8-13.2,17.8-15.2,28.6c-2.3,11.3-0.7,23.8,4.2,35.1c10.8,4.8,23.8,6.5,35.1,4.2c10.8-2.1,20.5-7.4,28.4-15.5
		C353.7,597.8,359,587.9,361,577z M334.5,541.7l22.8,22.8c0,4.9-0.7,9.7-1.8,14.3l-35.3-35.3C324.8,542.4,329.7,541.7,334.5,541.7z
		 M305,617l-22.8-22.8c0-4.8,0.5-9.7,1.8-14.3l35.3,35.3C314.7,616.3,309.8,617,305,617z M330.4,575.9c0.2,0.2,0.2,0.9,0,1.2
		l-0.9,0.9c-0.2,0.2-0.9,0.2-1.2,0l-2.5-2.5l-3.9,3.9l2.5,2.5c0.2,0.2,0.2,0.9,0,1.2l-0.9,0.9c-0.2,0.2-0.9,0.2-1.2,0l-2.5-2.5
		l-3.9,3.9l2.5,2.5c0.2,0.2,0.2,0.9,0,1.2l-0.9,0.9c-0.2,0.2-0.9,0.2-1.2,0l-2.5-2.5l-3.9,3.9l-2.1-2.1l3.9-3.9l-2.5-2.5
		c-0.2-0.2-0.2-0.9,0-1.2l0.9-0.9c0.2-0.2,0.9-0.2,1.2,0l2.5,2.5l3.9-3.9l-2.5-2.5c-0.2-0.2-0.2-0.9,0-1.2l0.9-0.9
		c0.2-0.2,0.9-0.2,1.2,0l2.5,2.5l3.9-3.9l-2.5-2.5c-0.2-0.2-0.2-0.9,0-1.2l0.9-0.9c0.2-0.2,0.9-0.2,1.2,0l2.5,2.5l3.9-3.9l2.1,2.1
		l-3.9,3.9L330.4,575.9z"/>
	<path class="st1" d="M225.6,470c-1.2-0.9-2.5-1.2-3.9-0.7c1.6,2.3,0.9,8.3,4.6,6.9C225.1,473.9,225.4,472,225.6,470z"/>
	<path class="st1" d="M206,463.3c-0.5,0-0.7-0.2-1.2-0.2c0,2.3,1.4,8.3,4.4,9c0.5,0.2,1.2,0.2,1.6,0
		C208.3,468.6,209.2,464.4,206,463.3z"/>
	<path class="st1" d="M195.6,459.6c0.7,3,1.6,9.5,4.8,10.2c0.5,0.2,1.2,0.2,1.8,0c-1.4-2.8-3-5.8-3-8.5
		C198.1,460.7,196.8,460.5,195.6,459.6z"/>
	<path class="st1" d="M187.5,456.8c-1.2,1.8,0.7,10.2,4.8,11.3c0,0,0.2,0,0.5,0s0.7,0,1.2,0C193.3,465.1,190.1,458,187.5,456.8z"/>
	<path class="st1" d="M269,470l-0.2-0.2c-0.9-0.7-1.8-0.9-2.8-0.9c-1.2,0-2.1,0.5-3,0.7c-0.2,0.2-0.7,0.5-0.9,0.5
		c-2.3,0.5-4.8,0.7-7.4,0.7c-4.2,0-8.3-0.7-12.5-1.4c-3.9-0.9-7.8-1.8-11.3-2.8c-20.3-5.5-39.5-13.2-59.8-21.5
		c-5.5-2.1-11.3-4.4-16.8-6.7c-10.4-3.9-20.1-7.6-30.5-11.3c-6.9-2.3-13.8-4.9-21-7.6c-10.6-4.2-25.4-9.2-38.5-13.1
		c-0.9-0.5-2.1-0.9-3.5-1.4c-3-1.2-6.2-2.5-9.2-2.5c-1.8,0-3.2,0.5-4.4,1.4c-5.3,4.6-16.6,23.8-10.6,32.5c2.1,2.8,6.9,4.2,11.8,5.5
		c0.7,0.2,1.6,0.5,2.3,0.7c27.7,8.1,55.4,13.6,82.1,19.2c21.2,4.4,42.9,8.8,64.6,14.3c2.3,0.5,4.6,0.9,6.7,1.4
		c2.1,0.5,4.4,0.7,6.7,1.4h0.2c12.2,3.2,27.2,7.4,37.8,14.8c1.4,0.7,2.3,1.8,3.5,3c1.6,1.9,3.2,3.5,5.5,4.4l0.9,0.5l0.9-0.5
		c12-8.1,15.5-19.6,9.5-30.7L269,470z M258.4,494.7c-8.5-8.5-18.9-13.4-29.8-16.8c-3.5-1.2-7.2-2.3-10.8-3.2c0,0,0,0,0,0
		c0.4,0,1,0,1.4-0.2c-2.1-3.5-1.6-7.2-4.6-8.3c-0.2,0-0.7-0.2-0.9-0.2c-0.2,2.2,0.9,7.7,3.7,8.6c-2.6-0.6-5.2-1.3-7.8-2
		c-0.9-0.2-1.8-0.5-2.8-0.7c-2.1-0.5-4.2-1.2-6.2-1.6c-2.8-0.5-5.3-1.2-7.8-1.8h-0.2c-13.2-3.2-26.5-6.5-39.7-9.2
		c-18.2-3.7-36-8.3-54-12.9c-17.8-4.6-36.2-7.8-53.5-14.8c0.7-8.3,2.8-16.4,6-24.2c45.9,12.9,90.7,31.4,135.7,48.7
		c-2.1,3-3.7,6-3.2,9.5c2.1-3,1.8-6.2,3.9-9.2c0.2,0,0.5,0.2,0.7,0.2c2.5,0.9,5.3,1.9,8.1,2.8c3.5,1.2,6.9,2.5,10.4,3.7
		c2.8,1.2,5.5,2.1,8.3,3c5.1,1.8,10.2,3.5,15.2,4.9c-1.4,2.1-3.5,5.5-1.4,7.2c2.3-2.3,1.8-4.8,3.2-7.2c11.1,2.1,21.9,5.8,34.6,1.2
		c1.2,2.8-2.5,3.9-4.4,4.4c-7.2,2.1-18.2-1.8-23.8-1.6c8.8,3,17.5,6.2,27.5,3C263.9,483.3,262.3,489.1,258.4,494.7z M260.9,493.5
		c3.2-5.5,4.8-13.2,6.7-17.8C267.8,482,266.4,489.6,260.9,493.5z"/>
	<path class="st1" d="M84.8,420.1c-11.1-3.9-21.5-8.3-32.8-10.2c-0.7,0.2-1.2,0.7-1.6,0.9c1.4,2.8,5.1,2.3,7.4,3
		c28.6,8.3,58.4,19.6,87,30.5c10.6,3.9,20.8,8.5,31.8,10.8c-9.9-4.6-20.3-8.5-30.5-12.7C125.9,434.7,105.4,427.7,84.8,420.1z"/>
	<path class="st1" d="M878.2,682.7c0-0.2,0-0.7-0.5-0.7h-4.6c-0.2,0-0.5,0.2-0.5,0.7l-1.6,7.6l-1.6,7.8c0,0.2-0.2,0.7-0.5,0.7h-3.2
		h-0.5c-3.2,0-2.8-2.5-2.3-5.5v-0.2v-0.5l0.2-0.7l0.2-0.9c0-0.2,0.2-0.7,0.2-0.9l0.7-3.7l0.7-3.7c0-0.2,0-0.7-0.5-0.7h-4.8
		c-0.2,0-0.5,0.2-0.5,0.7l-0.9,4.8l-0.9,4.8v0.5c-1.2,5.3-0.9,10.6,5.5,10.8l0.2,0.2h10.1c0.2,0,0.5-0.2,0.5-0.5l2.1-10.2l0.7-3.5
		L878.2,682.7z"/>
	<path class="st1" d="M819.1,696.3l-0.7,3.7l0.7-3.2C819.1,696.6,819.1,696.6,819.1,696.3z"/>
	<polygon class="st1" points="820,692.6 819.3,695.9 819.3,696.1 	"/>
	<path class="st1" d="M827.9,682.3H823c-0.2,0-0.5,0.2-0.5,0.5l-0.5,2.1l-0.5,1.8c0,0.2,0,0.2,0.5,0.2h5.1c0.2,0,0.5,0,0.5-0.2
		l0.2-2.1l0.2-2.1C828.1,682.5,828.1,682.3,827.9,682.3z"/>
	<path class="st1" d="M821.4,689.2c-0.2,0-0.5,0.2-0.5,0.5l-0.7,3.2l-0.7,3.2c0,0.2-0.2,0.7-0.2,0.9l-0.7,3.2l-0.7,3.2
		c0,0.2-0.2,0.7-0.2,0.9c0,0-0.9,2.8-2.5,2.8h-0.2c-0.7,0-1.4,0-1.4,0c-0.2,0-0.5,0.2-0.5,0.5l-0.5,2.3l-0.5,2.3
		c0,0.2,0,0.5,0.5,0.5c0.9,0,3,0,4.2,0c3.9,0,6.2-2.3,7.6-8.8l1.6-7.4l1.4-6.9c-0.5-0.5-0.7-0.5-0.9-0.5L821.4,689.2L821.4,689.2z"
		/>
	<path class="st1" d="M921.1,687.3l-0.2-0.9l-0.2-0.9V685c-0.5-1.6-1.6-2.5-4.4-2.5l-4.2-0.2l-3.9-0.2h-0.2H904
		c-0.2,0-0.7,0.5-0.7,0.7l-0.2,0.9l-0.2,1.2v0.2l-1.8,9l-1.8,8.5v0.5c0,0,0,0,0,0.2c0,0.2,0.1,0.3,0.3,0.4c0.1,0.2,0.4,0.3,0.6,0.3
		h3.9c0.2,0,0.7-0.2,0.7-0.2s0,0,0.2-0.2l0.2-0.2V703v-0.2l0.7-3.5l0.7-3.5v-0.2c0-0.2,0-0.2,0-0.5l0.7-3.7l0.7-3.5
		c0-0.2,0.2-0.5,0.5-0.5l12.2,0.2C920.9,687.8,921.1,687.6,921.1,687.3z"/>
	<path class="st1" d="M938.4,679.3H937c-0.9,0-0.9,0-1.4,0h-3.9c-0.2,0-0.7,0.2-0.7,0.5l-8.5,12.7c-0.2,0.2-0.2,0.2-0.5,0l-0.7-2.8
		c0-0.2-0.2-0.5-0.5-0.5h-5.5c-0.2,0-0.5,0.2-0.2,0.5l2.5,8.8c0,0.2,0,0.7,0,0.9l-1.2,4.2c0,0.2,0,0.5,0.5,0.5h5.5
		c0.2,0,0.5-0.2,0.7-0.5l1.2-4.2c0-0.2,0.2-0.7,0.5-0.9l14.1-18.7C938.6,679.5,938.6,679.3,938.4,679.3z"/>
	<path class="st1" d="M890.4,682.3c-9-0.2-11.1,5.3-12.2,10.8s-0.9,10.8,8.3,10.8c0.1,0,0.2,0,0.2,0s0.2,0,0.2,0s0.1,0,0.2,0
		s0.2,0,0.2,0c0.2,0,0.5,0,0.7,0c0.1,0,0.3,0,0.5,0c0.1,0,0.3,0,0.5,0c0.1,0,0.2,0,0.2,0c2.1,0,4.2,0,5.3,0c0.2,0,0.5-0.2,0.5-0.5
		l0.5-1.8l0.2,1.8l0.5-1.8v-0.5v-0.2l0.5-1.8c0,0,0,0,0-0.2s-0.2-0.5-0.5-0.5v0.5h-8.3c-3,0-4.2-0.9-3.9-3.2c0-0.2,0.2-0.7,0.5-0.7
		h12.9c0.2,0,0.5,0,0.5-0.2C899.9,687.1,899.4,682.3,890.4,682.3z M892.2,691.3h-6.9c-0.2,0-0.5-0.5-0.2-0.5c0,0,0,0,0-0.2
		c0.7-1.8,2.1-3,4.6-3c2.8-0.2,3,1.2,3,2.8C892.5,690.6,892.5,691.3,892.2,691.3z"/>
	<path class="st1" d="M844,676.7c-9.2,0-13.1,6.5-14.5,13.6c-1.6,7.2,0.5,13.6,9.5,13.4h7.2h6.7c0.2,0,0.5-0.2,0.7-0.5l1.2-4.4
		c0-0.2,0-0.5-0.5-0.5h-0.9H853h-0.9h-0.2c-0.2,0-0.2-0.2-0.2-0.2s2.5-6.2,3-9.7C855.5,683.6,853.2,676.7,844,676.7z M848.2,690.1
		l-0.2,0.5l-0.9,3.7l-0.9,3.5c0,0.2-0.2,0.2-0.7,0.2h-5.3c-4.2,0-5.1-3-4.2-7.8c0.9-4.9,3-7.6,6.9-8.1
		C848.2,681.8,849.3,685.7,848.2,690.1z"/>
	<path class="st1" d="M794.9,703c-0.2,0-0.5,0-0.5-0.2c0,0,0,0-0.2,0s-0.5,0-0.5-0.2c-0.2,0-0.2,0-0.5-0.2c0,0,0,0-0.2,0
		s-0.2-0.2-0.5-0.2s-0.2-0.2-0.5-0.2c0,0,0,0-0.2,0c0,0-0.2,0-0.2-0.2c0,0-0.2,0-0.2-0.2c-0.2,0-0.2-0.2-0.5-0.2c0,0,0,0-0.2,0
		c-0.2,0-0.5-0.2-0.5-0.2s0,0-0.2,0c-0.2,0-0.2-0.2-0.5-0.2c0,0,0,0-0.2,0c-0.2,0-0.2-0.2-0.5-0.2c0,0,0,0-0.2-0.2l-0.2-0.2
		c0,0,0,0-0.2,0c-0.2,0-0.2-0.2-0.5-0.2c-0.2-0.2-0.2-0.2-0.5-0.5c0,0,0,0-0.2,0l-0.2-0.2c0,0,0,0-0.2-0.2c-0.2-0.2-0.2-0.2-0.5-0.5
		c-0.2-0.2-0.2-0.2-0.5-0.5l-0.2-0.2c0,0,0,0,0-0.2c0-0.2-0.2-0.2-0.2-0.5c-2.8-3.7-3.7-9-1.6-13.4l-2.1,2.5
		c-2.5,3.7-2.3,8.3-0.2,12.2c0,0,0,0.2,0.2,0.2v0.2v0.2l0.2,0.2v0.2l0.2,0.2c0,0,0,0,0,0.2c0,0.2,0.2,0.2,0.2,0.5
		c0,0.2,0.2,0.2,0.2,0.5c0,0,0,0,0,0.2l0.2,0.2c0,0,0,0,0,0.2c0.2,0.2,0.2,0.2,0.5,0.5c0.2,0.2,0.2,0.2,0.5,0.5c0,0,0,0,0,0.2
		l0.2,0.2c0,0,0,0,0.2,0c0.2,0.2,0.2,0.2,0.5,0.5c0.2,0,0.2,0.2,0.5,0.2c0,0,0,0,0.2,0.2l0.2,0.2c0,0,0,0,0.2,0.2l0.2,0.2
		c0,0,0,0,0.2,0l0.2,0.2c0,0,0,0,0.2,0c0.2,0,0.2,0.2,0.5,0.2c0,0,0,0,0.2,0s0.2,0.2,0.5,0.2h0.2c0,0,0.2,0,0.2,0.2
		c0.2,0,0.2,0.2,0.5,0.2c0.2,0,0.2,0.2,0.5,0.2c0,0,0,0,0.2,0c0.2,0,0.2,0.2,0.5,0.2c0.2,0,0.5,0.2,0.5,0.2s0,0,0.2,0
		c0.2,0,0.5,0.2,0.5,0.2c12.2,2.3,15.7-7.4,15.7-7.4C805,703,799.7,704.2,794.9,703z"/>
	<path class="st1" d="M799,695.2c-0.2,0-0.5,0-0.5-0.2c0,0,0,0-0.2,0c-0.2,0-0.2,0-0.5-0.2c0,0,0,0-0.2,0s-0.2,0-0.5-0.2
		c-0.2,0-0.2-0.2-0.5-0.2c0,0-0.2,0-0.2-0.2c0,0,0,0-0.2,0l-0.2-0.2c-0.2,0-0.2-0.2-0.5-0.2c0,0-0.2,0-0.2-0.2
		c-0.2-0.2-0.2-0.2-0.5-0.5c-1.8-1.4-3.2-3.2-3.9-5.5c-0.7-2.3-0.5-4.8,0.7-6.9l-1.4,2.1c-1.8,2.5-1.6,6.2-0.2,9
		c0.2,0.5,0.5,0.9,0.7,1.4c0.2,0.5,0.5,0.9,0.9,1.2c0.2,0.2,0.2,0.2,0.5,0.5c0.2,0.2,0.2,0.2,0.5,0.5c0.2,0.2,0.2,0.2,0.5,0.5
		c0.2,0.2,0.2,0.2,0.5,0.5c0,0,0.2,0,0.2,0.2c0.2,0,0.2,0.2,0.5,0.2l0.2,0.2c0,0,0,0,0.2,0c0,0,0.2,0,0.2,0.2c0.2,0,0.2,0.2,0.5,0.2
		s0.2,0,0.5,0.2c0,0,0,0,0.2,0c0.2,0,0.2,0,0.5,0.2c0,0,0,0,0.2,0c0.2,0,0.5,0.2,0.5,0.2c9.5,1.6,11.5-5.8,11.5-5.8
		C806.9,694.9,802.9,696.3,799,695.2z"/>
	<path class="st1" d="M796.2,680.6c-1.2,1.6-1.2,3.5-0.5,5.3c0.9,1.9,2.5,3.2,4.6,3.9h0.2h0.2c5.3,0.9,6.7-2.8,6.9-3.2
		c-1.2,1.8-3.2,2.3-5.8,1.6c-0.2,0-0.5-0.2-0.7-0.2c-0.2,0-0.5-0.2-0.7-0.2c-0.5-0.2-0.9-0.5-1.4-0.7c-2.3-1.6-3.7-5.1-2.3-7.6
		L796.2,680.6z"/>
	<path class="st1" d="M463.3,205.1h142.8c4.8,0,9-3.9,9-9v-65.5c-0.2-4.8-4.2-9-9-9H463.3c-4.8,0-9,3.9-9,9v65.5
		C454.3,200.9,458.2,205.1,463.3,205.1z M459.4,130.5c0-2.1,1.8-3.9,3.9-3.9h142.8c2.1,0,3.9,1.8,3.9,3.9v65.5
		c0,2.1-1.8,3.9-3.9,3.9H463.3c-2.1,0-3.9-1.8-3.9-3.9V130.5L459.4,130.5z"/>
	<path class="st1" d="M508,179.7c1.2,0,2.3-1.2,2.3-2.3v-4.6c0-1.2-1.2-2.3-2.3-2.3h-6.9c-1.2,0-2.3,1.2-2.3,2.3v4.6
		c0,1.2,1.2,2.3,2.3,2.3H508z"/>
	<path class="st1" d="M512.7,177.4c0,1.2,1.2,2.3,2.3,2.3h6.9c1.2,0,2.3-1.2,2.3-2.3v-4.6c0-1.2-1.2-2.3-2.3-2.3H515
		c-1.2,0-2.3,1.2-2.3,2.3V177.4z"/>
	<path class="st1" d="M535.7,179.7c1.2,0,2.3-1.2,2.3-2.3v-4.6c0-1.2-1.2-2.3-2.3-2.3h-4.6c-1.2,0-2.3,1.2-2.3,2.3v4.6
		c0,1.2,1.2,2.3,2.3,2.3H535.7z"/>
	<path class="st1" d="M551.9,179.7c1.2,0,2.3-1.2,2.3-2.3v-4.6c0-1.2-1.2-2.3-2.3-2.3h-4.6c-1.2,0-2.3,1.2-2.3,2.3v4.6
		c0,1.2,1.2,2.3,2.3,2.3H551.9z"/>
	<path class="st1" d="M570.3,177.4v-4.6c0-1.2-1.2-2.3-2.3-2.3h-6.9c-1.2,0-2.3,1.2-2.3,2.3v4.6c0,1.2,1.2,2.3,2.3,2.3h6.9
		C569.2,179.7,570.3,178.5,570.3,177.4z"/>
	<path class="st1" d="M600.3,170.4h-20.8c-1.2,0-2.3,1.2-2.3,2.3v4.6c0,1.2,1.2,2.3,2.3,2.3h20.8c1.2,0,2.3-1.2,2.3-2.3v-4.6
		C602.6,171.6,601.5,170.4,600.3,170.4z"/>
	<path class="st1" d="M468.8,179.7h23.1c1.2,0,2.3-1.2,2.3-2.3v-4.6c0-1.2-1.2-2.3-2.3-2.3h-23.1c-1.2,0-2.3,1.2-2.3,2.3v4.6
		C466.5,178.5,467.7,179.7,468.8,179.7z"/>
	<path class="st1" d="M489.6,156.6v6.9c0,1.2,1.2,2.3,2.3,2.3h6.9c1.2,0,2.3-1.2,2.3-2.3v-6.9c0-1.2-1.2-2.3-2.3-2.3h-6.9
		C490.7,154.3,489.6,155.4,489.6,156.6z"/>
	<path class="st1" d="M510.3,165.8c1.2,0,2.3-1.2,2.3-2.3v-6.9c0-1.2-1.2-2.3-2.3-2.3H508c-1.2,0-2.3,1.2-2.3,2.3v6.9
		c0,1.2,1.2,2.3,2.3,2.3H510.3z"/>
	<path class="st1" d="M519.6,156.6v6.9c0,1.2,1.2,2.3,2.3,2.3h6.9c1.2,0,2.3-1.2,2.3-2.3v-6.9c0-1.2-1.2-2.3-2.3-2.3h-6.9
		C520.7,154.3,519.6,155.4,519.6,156.6z"/>
	<path class="st1" d="M533.4,156.6v6.9c0,1.2,1.2,2.3,2.3,2.3h6.9c1.2,0,2.3-1.2,2.3-2.3v-6.9c0-1.2-1.2-2.3-2.3-2.3h-6.9
		C534.6,154.3,533.4,155.4,533.4,156.6z"/>
	<path class="st1" d="M551.9,156.6v6.9c0,1.2,1.2,2.3,2.3,2.3h4.6c1.2,0,2.3-1.2,2.3-2.3v-6.9c0-1.2-1.2-2.3-2.3-2.3h-4.6
		C553,154.3,551.9,155.4,551.9,156.6z"/>
	<path class="st1" d="M565.7,156.6v6.9c0,1.2,1.2,2.3,2.3,2.3h6.9c1.2,0,2.3-1.2,2.3-2.3v-6.9c0-1.2-1.2-2.3-2.3-2.3H568
		C566.9,154.3,565.7,155.4,565.7,156.6z"/>
	<path class="st1" d="M600.3,154.3h-16.2c-1.2,0-2.3,1.2-2.3,2.3v6.9c0,1.2,1.2,2.3,2.3,2.3h16.2c1.2,0,2.3-1.2,2.3-2.3v-6.9
		C602.6,155.4,601.5,154.3,600.3,154.3z"/>
	<path class="st1" d="M468.8,165.8h13.8c1.2,0,2.3-1.2,2.3-2.3v-6.9c0-1.2-1.2-2.3-2.3-2.3h-13.8c-1.2,0-2.3,1.2-2.3,2.3v6.9
		C466.5,164.7,467.7,165.8,468.8,165.8z"/>
	<path class="st1" d="M487.3,149.7h6.9c1.2,0,2.3-1.2,2.3-2.3v-4.6c0-1.2-1.2-2.3-2.3-2.3h-6.9c-1.2,0-2.3,1.2-2.3,2.3v4.6
		C485,148.5,486.1,149.7,487.3,149.7z"/>
	<path class="st1" d="M503.4,149.7h6.9c1.2,0,2.3-1.2,2.3-2.3v-4.6c0-1.2-1.2-2.3-2.3-2.3h-6.9c-1.2,0-2.3,1.2-2.3,2.3v4.6
		C501.1,148.5,502.3,149.7,503.4,149.7z"/>
	<path class="st1" d="M517.3,149.7h6.9c1.2,0,2.3-1.2,2.3-2.3v-4.6c0-1.2-1.2-2.3-2.3-2.3h-6.9c-1.2,0-2.3,1.2-2.3,2.3v4.6
		C515,148.5,516.1,149.7,517.3,149.7z"/>
	<path class="st1" d="M533.4,149.7h4.6c1.2,0,2.3-1.2,2.3-2.3v-4.6c0-1.2-1.2-2.3-2.3-2.3h-4.6c-1.2,0-2.3,1.2-2.3,2.3v4.6
		C531.1,148.5,532.3,149.7,533.4,149.7z"/>
	<path class="st1" d="M547.3,149.7h6.9c1.2,0,2.3-1.2,2.3-2.3v-4.6c0-1.2-1.2-2.3-2.3-2.3h-6.9c-1.2,0-2.3,1.2-2.3,2.3v4.6
		C545,148.5,546.1,149.7,547.3,149.7z"/>
	<path class="st1" d="M565.7,149.7h4.6c1.2,0,2.3-1.2,2.3-2.3v-4.6c0-1.2-1.2-2.3-2.3-2.3h-4.6c-1.2,0-2.3,1.2-2.3,2.3v4.6
		C563.4,148.5,564.6,149.7,565.7,149.7z"/>
	<path class="st1" d="M579.6,149.7h6.9c1.2,0,2.3-1.2,2.3-2.3v-4.6c0-1.2-1.2-2.3-2.3-2.3h-6.9c-1.2,0-2.3,1.2-2.3,2.3v4.6
		C577.3,148.5,578.4,149.7,579.6,149.7z"/>
	<path class="st1" d="M595.7,149.7h4.6c1.2,0,2.3-1.2,2.3-2.3v-4.6c0-1.2-1.2-2.3-2.3-2.3h-4.6c-1.2,0-2.3,1.2-2.3,2.3v4.6
		C593.4,148.5,594.6,149.7,595.7,149.7z"/>
	<path class="st1" d="M468.8,149.7h9.2c1.2,0,2.3-1.2,2.3-2.3v-4.6c0-1.2-1.2-2.3-2.3-2.3h-9.2c-1.2,0-2.3,1.2-2.3,2.3v4.6
		C466.5,148.5,467.7,149.7,468.8,149.7z"/>
	<path class="st1" d="M494.2,184.3H485c-1.2,0-2.3,1.2-2.3,2.3v6.9c0,1.2,1.2,2.3,2.3,2.3h9.2c1.2,0,2.3-1.2,2.3-2.3v-6.9
		C496.5,185.4,495.3,184.3,494.2,184.3z"/>
	<path class="st1" d="M468.8,195.8h4.6c1.2,0,2.3-1.2,2.3-2.3v-6.9c0-1.2-1.2-2.3-2.3-2.3h-4.6c-1.2,0-2.3,1.2-2.3,2.3v6.9
		C466.5,194.7,467.7,195.8,468.8,195.8z"/>
	<path class="st1" d="M556.5,184.3h-53.1c-1.2,0-2.3,1.2-2.3,2.3v6.9c0,1.2,1.2,2.3,2.3,2.3h53.1c1.2,0,2.3-1.2,2.3-2.3v-6.9
		C558.8,185.4,557.7,184.3,556.5,184.3z"/>
	<path class="st1" d="M577.3,184.3h-11.5c-1.2,0-2.3,1.2-2.3,2.3v6.9c0,1.2,1.2,2.3,2.3,2.3h11.5c1.2,0,2.3-1.2,2.3-2.3v-6.9
		C579.6,185.4,578.4,184.3,577.3,184.3z"/>
	<path class="st1" d="M599.6,190.1c-1.4,0-2.3,0.9-2.3,2.3s1.2,2.3,2.3,2.3c1.4,0,2.3-1.2,2.3-2.3S601,190.3,599.6,190.1z"/>
	<path class="st1" d="M593,190.1c-1.4,0-2.3,0.9-2.3,2.3s1.2,2.3,2.3,2.3c1.4,0,2.3-1.2,2.3-2.3S594.1,190.3,593,190.1z"/>
	<path class="st1" d="M593,183.4c-1.4,0-2.3,0.9-2.3,2.3s1.2,2.3,2.3,2.3c1.4,0,2.3-1.2,2.3-2.3C595.3,184.5,594.1,183.4,593,183.4z
		"/>
	<path class="st1" d="M586,190.1c-1.4,0-2.3,0.9-2.3,2.3s1.2,2.3,2.3,2.3c1.4,0,2.3-1.2,2.3-2.3S587.4,190.3,586,190.1z"/>
	<path class="st1" d="M84.6,256.8H46.1c-4.6,0-8.5,3.9-8.5,8.5v94.1c0,4.6,3.9,8.5,8.5,8.5h38.5c4.6,0,8.5-3.9,8.5-8.5v-94.4
		C93.1,260.4,89.2,256.8,84.6,256.8z M84.6,363.8H47c-3,0-5.5-2.5-5.5-5.5v-93c0-3,2.5-5.5,5.5-5.5h37.4c3,0,5.5,2.5,5.5,5.5v93h0.2
		C90.1,361.3,87.6,363.8,84.6,363.8z"/>
	<rect x="44.5" y="275.4" class="st1" width="41.8" height="73.4"/>
	<path class="st1" d="M60.2,270.6h10.4c0.5,0,0.9-0.5,0.9-0.9c0-0.5-0.5-0.9-0.9-0.9H60.2c-0.5,0-0.9,0.5-0.9,0.9
		C59.5,269.9,59.7,270.6,60.2,270.6z"/>
	<path class="st1" d="M65.5,351.4c-2.8,0-5.3,2.3-5.3,5.3c0,3,2.3,5.3,5.3,5.3c3,0,5.3-2.3,5.3-5.3
		C70.8,353.7,68.2,351.4,65.5,351.4z"/>
	<path class="st1" d="M452.2,674.4c-0.5-4.6-0.9-9.7-3.2-13.8c-2.5-4.4-9.9-12.2-15.7-15.9c-6-3.9-12.9-6.2-21-7.2
		c-1.2-1.2-3-1.8-5.5-1.8c-2.1,0-3.7,0.5-4.8,1.4c-1.8,0-3.5,0.2-4.4,0.2c-3,0.2-7.4,0.9-11.3,2.3c-6.2,2.3-12.7,6.2-17.5,11.3
		c-1.4,1.4-2.5,2.8-3.2,4.2c-3,5.3-4.8,9.5-5.8,14.3c-0.7,2.8-0.9,6.2-1.2,9.5c-0.2,2.3-0.2,4.4-0.5,5.5c-0.2,0.9-0.5,1.6-0.5,2.5
		c-0.2,0.9-0.2,1.6-0.5,2.1c-3,1.4-10.2,5.5-12.2,6.7l-0.2,0.2c-3.9,2.8-7.2,5.1-7.6,7.8c-0.7,3.2,1.4,6.5,5.5,8.1
		c2.3,0.9,11.8,3,28.4,6c6.5,1.2,25.6,4.2,32.5,4.2c0.5,0,0.9,0,1.2,0c5.8-0.2,14.1-1.6,18.2-3.7c3.7-1.6,12.9-7.6,15-9.5
		c0.5-0.2,0.7-0.7,0.9-0.9c0.9-0.7,1.6-1.6,2.1-2.5c3.7-0.9,6.7-2.3,8.3-3.7c1.8-1.6,3-4.9,3.2-6.7c0.7-5.3,0.7-11.3,0-18.2
		C452.4,676,452.2,675.3,452.2,674.4z M449,695.2c-0.2,1.4-1.2,3.5-1.8,4.2c-1.2,0.2-3.5,1.4-7.2,2.3c-2.1,0.5-5.1,0.5-7.8,0.5
		c-0.7,0-1.4,0-2.1,0s-1.4,0-1.8,0c-1.2,0-2.1,0-3,0c-2.1,0-4.8,0.2-7.8,0.2c-3.7,0-10.8,0-16.4-0.5c-7.2-0.7-18.7-2.3-26.8-4.2
		c-7.4-1.8-13.2-5.3-13.8-6.2c-0.2-0.9,0.2-2.3,0.7-3.9c0.2-0.7,0.5-1.6,0.5-2.5c0.2-1.4,0.5-3.5,0.7-6c0.2-3,0.5-6.2,0.9-8.8
		c0.9-4.4,2.5-8.3,5.3-13.2c0.7-1.2,1.4-2.1,2.8-3.2c4.6-4.6,10.6-8.3,16.2-10.4c3.5-1.2,7.6-1.8,10.4-2.1c1.2-0.2,3-0.2,5.3-0.2
		c0.7,0.5,1.8,0.5,3.7,0.5c1.4,0,2.3,0,3-0.2c6.5,0.7,14.3,2.3,21.5,6.9c5.1,3.2,12.2,10.8,14.5,14.8c2.1,3.5,2.5,8.1,2.8,12.2
		c0,0.7,0.2,1.6,0.2,2.3C449.4,684.3,449.4,690.1,449,695.2z"/>
	<path class="st1" d="M402.4,663.8c-0.2-2.1-1.4-4.2-3.5-5.3c-0.7-0.5-1.6-0.9-3-0.9c-0.2,0-0.7,0-0.9,0c-1.6,0-2.8,0.5-3.9,0.9
		c-0.5-0.7-1.4-1.8-3-1.8h-0.2c-1.8,0-3.2,1.2-3.5,3l-0.2,0.9l0.9,0.2c1.2,0.2,1.8,0.5,1.8,1.2c0,0.2,0,0.7-0.2,1.2
		c0,0.2,0,0.5-0.2,0.7l-0.2,2.1c0,0.5-0.2,1.2-0.2,1.6c-0.2,0.9-0.2,1.8-0.5,2.3c0,0.2-0.7,0.5-0.9,0.5c-0.5,0.2-0.7,0.2-1.2,0.7
		l-0.7,0.7l0.7,0.7c0.2,0.2,0.5,0.5,0.7,0.7c0.2,0.2,0.9,0.7,0.9,0.9c0,0.9-0.5,2.8-0.7,4.4c-0.2,0.7-0.2,1.6-0.5,2.1
		c0,0.2,0,0.7-0.2,0.9c0,0.5,0,0.9-0.2,1.2c0,0.2-0.7,0.5-1.2,0.5c-0.2,0-0.5,0-0.7,0l-0.9-0.2l-0.2,0.9c-0.2,0.9,0,1.8,0.7,2.5
		c0.7,0.9,1.8,1.4,3.2,1.4h0.2c0.9,0,1.8-0.2,2.5-0.7c1.2,0.7,2.3,1.4,3.7,1.6c0.9,0.2,1.6,0.5,2.5,0.5c2.5,0,4.8-1.2,6-3
		c0.5-0.5,0.7-1.2,0.9-1.9c0.5-1.2,0.9-2.1,1.6-2.3l1.2-0.2l-0.5-1.2c-0.2-0.5-0.5-0.7-0.5-0.9c-0.2-0.2-0.2-0.2-0.2-0.5
		c-0.2-0.5-0.5-1.4-0.5-2.1c0-0.5,0-0.7-0.2-1.2c-0.2-0.9-0.5-1.8-0.9-2.8l0.2-0.2c0,0,0.2-0.7,0.7-1.4c0.2-0.7,0.5-1.2,0.9-1.6
		c0,0,0.2-0.2,0.5-0.2c0.2-0.2,0.5-0.2,0.9-0.7l0.7-0.9l-0.9-0.7C402.4,666.8,402.4,664.9,402.4,663.8z M395,681.1l0.2,0.2
		c0,0.2,0.7,1.6,0,2.5c-0.2,0.5-1.2,0.9-2.5,0.9s-2.8-0.5-3.5-1.2c-0.5-0.2-0.7-0.9-0.7-1.2c0-0.5,0.2-1.4,0.2-2.1
		c0-0.5,0.2-0.9,0.2-1.2l0.2-2.1c0-0.5,0.2-1.2,0.2-1.4c0.5-0.7,1.6-0.9,2.5-0.9c0.2,0,0.2,0,0.5,0c2.1,0.2,3.2,1.4,3.5,2.5
		c0.2,0.7,0,1.2-0.7,1.8c0,0,0,0-0.2,0c-0.2,0.2-0.5,0.2-0.7,0.7C394.7,680.4,394.7,680.9,395,681.1z M397.5,666.8
		c-0.2,0.2-0.2,0.2-0.5,0.5l-0.5,0.5l0.2,0.2c0.2,0.7,0.5,0.9,0.5,1.4c-0.2,1.4-1.6,2.1-2.8,2.1c-0.2,0-0.5,0-0.5,0
		c-1.4-0.2-2.5-0.9-3-1.4c-0.2-0.5,0-1.4,0-2.3c0-0.5,0-0.7,0.2-1.2c0-0.9,0.2-1.8,0.5-2.3c0.5-0.9,1.6-1.4,2.8-1.4h0.2
		c1.8,0.2,2.8,1.2,3,1.8c0.2,0.5,0.5,0.9,0.5,1.4C398.2,666.3,398,666.6,397.5,666.8z"/>
	<path class="st1" d="M1070.6,650c-0.9-1.6-1.8-3.2-2.8-4.8c-0.5-0.7-1.6-0.5-2.3-0.5c-0.7,0-2.3-0.2-2.8,0.5
		c-2.3,3.9-4.6,7.6-6.9,11.5c-0.5,0.7-0.9,1.6-1.4,2.3c-0.2,0.7-0.9,1.6,0.2,1.6s2.3,0,3.5,0c0.5,0,1.2,0.2,1.4,0
		c0.2-0.2,0.5-0.7,0.7-1.2c0.2,0,0.5-0.9,0.7-0.9c0.2,0,0.7,0,0.9,0c1.4,0,2.8,0,4.2,0c0.9,0,1.8,0,2.8,0c0.2,0,0.7,0.9,0.7,1.2
		c0.2,0.2,0.5,0.9,0.9,0.9c1.4,0,3,0,4.6-0.2c1.4,0,0.9-0.9,0.5-1.6C1073.8,655.7,1072.2,653,1070.6,650z M1062.8,654.8
		c0.7-1.2,1.2-2.5,1.8-3.7c0.7,1.2,1.4,2.5,2.1,3.7C1065.5,654.8,1064.2,654.8,1062.8,654.8z"/>
	<path class="st1" d="M1040.2,654.1c-0.2-0.2-0.2-0.5-0.5-0.7c0,0.2,1.6-1.2,1.6-1.4c0.7-1.2,0.9-2.3,0.5-3.7
		c-0.2-1.4-1.4-2.5-2.5-3c-1.4-0.7-2.8-0.5-4.2-0.5c-1.6,0-3.5,0-5.1,0c-0.7,0-1.6,0-2.3,0s-2.5-0.2-3,0.5c-0.2,0.5,0,1.2,0,1.6
		c0,1.2,0,2.3,0,3.5c0,2.5,0,5.3,0,7.8c0,0.7,0,1.2,0,1.9c0,0.9,1.4,0.7,2.1,0.7c0.9,0,2.3,0.2,3.2,0c0.9-0.2,0.7-1.6,0.7-2.3
		c0-1.2,0-2.3,0-3.2c0.9,0,2.5-0.2,3.5,0.2c0.5,0.2,0.5,0.7,0.7,1.2c0.7,1.4,1.4,2.5,2.3,3.9c0.2,0.5,0.7,0.5,1.2,0.5
		c0.9,0,1.6,0,2.5,0c0.5-0.5,3.5,0,2.8-1.4C1042.5,657.8,1041.3,656,1040.2,654.1z M1033.7,651.6c-0.7,0-1.4,0-2.1,0
		c-0.2,0-0.7,0-0.9,0v-0.5c0-0.7,0-1.6,0-2.3c0-0.5,1.2-0.2,1.4-0.2c1.2,0,3.7-0.5,4.2,1.2C1036.7,651.1,1034.8,651.6,1033.7,651.6z
		"/>
	<path class="st1" d="M1060.2,646.5c0.2-0.5,0.5-0.7,0.5-1.2c-0.2-0.7-2.5-0.5-3-0.5c-0.7,0-2.3-0.2-2.8,0.5
		c-0.2,0.7-0.7,1.4-1.2,2.1c-1.2,1.8-2.3,3.7-3.5,5.5c-1.4-2.1-2.8-4.2-4.2-6.2c-0.5-0.5-0.9-1.6-1.6-1.6s-1.6,0-2.3,0
		c-0.5,0-1.2-0.2-1.6,0c3,1.2,3.7,4.6,2.5,7.2c1.2,1.6,2.1,3.2,3,5.1c0.5,0.7,1.2,1.6,1.6,2.5c0.5,0.7,0.9,0.7,1.8,0.7
		c0.7,0,1.8,0.5,2.3-0.5c0.5-0.5,0.7-0.9,0.9-1.4c1.2-2.1,2.5-4.2,3.7-6.2C1057.9,650.4,1059.1,648.6,1060.2,646.5z"/>
	<g>
		<path class="st1" d="M801.8,551.1c-2.2,0.1-4.4-0.8-5.9-2.3s-2.5-3.7-2.4-5.9v-10.4h-3.9c-6.1,0-11.1-4.9-11.2-11v-69.9
			c0.1-6.1,5.1-11,11.2-11h64.2c6.1,0,11.1,4.9,11.2,11v69.9c-0.1,6.1-5.1,11-11.2,11h-3.9v10.4c0,2.2-0.9,4.3-2.4,5.9
			s-3.7,2.4-5.9,2.3L801.8,551.1L801.8,551.1z M836.1,545.9h5.6c0.7,0.1,1.5-0.2,2-0.7c0.5-0.5,0.8-1.3,0.8-2v-10.4h-8.4V545.9
			L836.1,545.9z M799,543.2c0.1,1.5,1.3,2.7,2.8,2.7H825v-13.2H799L799,543.2L799,543.2z M784,451.6v69.9c0,3.1,2.5,5.5,5.6,5.5
			h64.2c3.1,0,5.5-2.4,5.6-5.5v-69.9c0-3-2.5-5.5-5.6-5.5h-64.1C786.5,446.1,784,448.6,784,451.6L784,451.6z M838.4,510.3
			c0-1.3,0.5-2.6,1.5-3.5s2.2-1.4,3.5-1.4c1.3,0,2.6,0.5,3.5,1.4s1.5,2.2,1.5,3.5c0,1.3-0.5,2.6-1.5,3.5c-0.9,0.9-2.2,1.4-3.5,1.4
			c-1.3,0-2.6-0.5-3.5-1.4C838.9,512.9,838.4,511.6,838.4,510.3L838.4,510.3z M816.9,510.3c0-1.3,0.5-2.6,1.5-3.5s2.2-1.4,3.5-1.4
			c1.3,0,2.6,0.5,3.5,1.4s1.5,2.2,1.5,3.5c0,1.3-0.5,2.6-1.5,3.5c-0.9,0.9-2.2,1.4-3.5,1.4c-1.3,0-2.6-0.5-3.5-1.4
			S816.9,511.6,816.9,510.3L816.9,510.3L816.9,510.3z M795.7,510.3c0-1.3,0.5-2.6,1.5-3.5s2.2-1.4,3.5-1.4c1.3,0,2.6,0.5,3.5,1.4
			s1.5,2.2,1.5,3.5c0,1.3-0.5,2.6-1.5,3.5c-0.9,0.9-2.2,1.4-3.5,1.4c-1.3,0-2.6-0.5-3.5-1.4C796.2,512.9,795.7,511.6,795.7,510.3
			L795.7,510.3z M838.4,491.9c0-1.3,0.5-2.6,1.5-3.5c0.9-0.9,2.2-1.4,3.5-1.4c1.3,0,2.6,0.5,3.5,1.4s1.5,2.2,1.5,3.5
			c0,1.3-0.5,2.6-1.5,3.5s-2.2,1.4-3.5,1.4c-1.3,0-2.6-0.5-3.5-1.4C838.9,494.5,838.4,493.2,838.4,491.9L838.4,491.9z M816.9,491.9
			c0-1.3,0.5-2.6,1.5-3.5c0.9-0.9,2.2-1.4,3.5-1.4c1.3,0,2.6,0.5,3.5,1.4s1.5,2.2,1.5,3.5c0,1.3-0.5,2.6-1.5,3.5s-2.2,1.4-3.5,1.4
			c-1.3,0-2.6-0.5-3.5-1.4S816.9,493.2,816.9,491.9L816.9,491.9L816.9,491.9z M795.7,491.9c0-1.3,0.5-2.6,1.5-3.5s2.2-1.4,3.5-1.4
			c1.3,0,2.6,0.5,3.5,1.4c0.9,0.9,1.5,2.2,1.5,3.5c0,1.3-0.5,2.6-1.5,3.5s-2.2,1.4-3.5,1.4c-1.3,0-2.6-0.5-3.5-1.4
			C796.2,494.5,795.7,493.2,795.7,491.9L795.7,491.9z M800.7,479.3c-2.2,0.1-4.4-0.8-5.9-2.3s-2.5-3.7-2.4-5.9v-8.2
			c0-2.2,0.9-4.3,2.4-5.9s3.7-2.4,5.9-2.3h42.1c2.2-0.1,4.4,0.8,5.9,2.3s2.5,3.7,2.4,5.9v8.2c0,2.2-0.9,4.3-2.4,5.9
			c-1.6,1.6-3.7,2.4-5.9,2.3H800.7L800.7,479.3z M797.9,462.9v8.2c0,0.7,0.2,1.5,0.8,2c0.5,0.5,1.3,0.8,2,0.7h42.1
			c0.7,0.1,1.5-0.2,2-0.7c0.5-0.5,0.8-1.3,0.8-2v-8.2c0-0.7-0.2-1.5-0.8-2s-1.3-0.8-2-0.7h-42.1c-0.7-0.1-1.5,0.2-2,0.7
			C798.2,461.4,797.9,462.1,797.9,462.9L797.9,462.9L797.9,462.9z"/>
	</g>
	<g>
		<path class="st1" d="M503.4,456l-4.8,4.8c-0.9,0.9-0.9,2.4,0,3.3c0.5,0.5,1,0.7,1.6,0.7s1.2-0.2,1.6-0.7l4.8-4.8
			c0.9-0.9,0.9-2.4,0-3.3C505.8,455.1,504.3,455.1,503.4,456L503.4,456z"/>
		<path class="st1" d="M519.5,447c5.2-1.8,9.7-7,10.2-12c0.1-1.3-0.8-2.4-2.1-2.5c-1.3-0.1-2.4,0.8-2.5,2.1
			c-0.3,2.8-3.3,6.8-7.1,8.1c-3.7,1.2-5.8,3.4-6.9,5.3c-3.7-2.7-8.1-4.2-12.7-4.2c-5.8,0-11.2,2.2-15.2,6.3l-16,16
			c-4,4-6.3,9.4-6.3,15.2c0,5.8,2.2,11.2,6.3,15.2c4,4,9.4,6.3,15.2,6.3c5.8,0,11.2-2.2,15.2-6.3l16-16c4-4,6.3-9.4,6.3-15.2
			c0-5.3-1.9-10.2-5.3-14.1C515.1,450,516.4,448,519.5,447L519.5,447z M494.4,493.2c-3.2,3.2-7.4,4.9-12,4.9s-8.8-1.8-12-4.9
			c-3.2-3.2-4.9-7.4-4.9-12s1.8-8.8,4.9-12l11.5-11.5c2.6,4.9,6,9.6,10.2,13.8c4.1,4.1,8.8,7.6,13.7,10.1L494.4,493.2L494.4,493.2z
			 M510.3,477.2l-1.1,1.1c-4.9-2.4-9.7-5.8-13.9-10c-4.2-4.2-7.6-9-10-13.9l1.1-1.1c3.2-3.2,7.4-4.9,12-4.9c4.5,0,8.8,1.8,12,4.9
			C516.9,459.9,516.9,470.6,510.3,477.2L510.3,477.2z"/>
	</g>
	<g>
		<path class="st1" d="M98.1,161.1v-41c0-8.8-7.2-16-16-16H30.8c-8.8,0-16,7.2-16,16v51.2c0,8.8,7.2,16,16,16h51.2
			c7.9,0,14.4-5.7,15.8-13.2c-4.2-1.8-22.6-9.8-32.2-14.4c-7.3,8.8-14.9,14.1-26.4,14.1s-19.2-7.1-18.3-15.8
			c0.6-5.7,4.5-15,21.5-13.4c8.9,0.8,13,2.5,20.3,4.9c1.9-3.5,3.5-7.3,4.6-11.3H35v-3.2h16v-5.8H31.5v-3.5H51v-8.3
			c0,0,0.2-1.3,1.6-1.3h8v9.6h20.8v3.5H60.6v5.8h17c-1.6,6.4-3.9,12.2-6.9,17.3C75.6,154.3,98.1,161.1,98.1,161.1L98.1,161.1
			L98.1,161.1L98.1,161.1 M37.9,168.5c-12.2,0-14.1-7.7-13.4-10.9c0.6-3.2,4.2-7.4,10.9-7.4c7.8,0,14.7,2,23.1,6.1
			C52.6,163.9,45.4,168.5,37.9,168.5L37.9,168.5L37.9,168.5 M37.9,168.5L37.9,168.5z"/>
	</g>
	<g>
		<path class="st1" d="M610.5,430.8c13.7,0,25.9,5.8,33.3,14.6c0.3,0.3-10.5,5.2-23.2,11c-6.7,3-13.9,6.6-20,8.4
			c-2.6,0.8-10.6-10-12.5-6.8c-1.2,0.8,0.8,4.3,2.7,8.3c2.4,5.2,5.1,11.1,5.2,11.1c0.3,0.3,1.2,0.9,3,0.5c8.2-4.1,47.6-28.7,48-28.1
			c2.9,4.8,4.5,10.2,4.5,15.9c0,19.3-18.3,34.9-40.9,34.9c-4.9,0-9.6-0.7-14-2.1c-2.5-0.8-11.3,6.9-13.1,6.1c-0.6-0.3-1-0.9-0.8-1.5
			c3.2-11.2,3.1-9.3-0.6-12.3c-7.7-6.4-12.5-15.2-12.5-25.1C569.6,446.4,587.9,430.8,610.5,430.8L610.5,430.8z"/>
	</g>
	<g>
		<path class="st1" d="M536.5,707.2H604c0.5,0.1,1.1,0.1,1.7,0.1c7.1,0,12.9-5.8,12.9-12.9c0-6.6-5-12.1-11.4-12.8
			c1.2-2.7,1.9-5.7,1.9-8.9c0-12.1-9.8-21.9-21.9-21.9s-21.9,9.8-21.9,21.9c0,0.2,0,0.5,0,0.7c-2.5-6.1-8.5-10.4-15.5-10.4
			c-9.3,0-16.8,7.5-16.8,16.8c0,0.7,0,1.5,0.1,2.2c-6.3,0.7-11.2,6.1-11.2,12.6c0,7,5.7,12.7,12.7,12.7
			C535.3,707.4,535.9,707.3,536.5,707.2L536.5,707.2z M534.7,717.1c-1,0.1-2.1,0.2-3.1,0.2c-12.7,0-22.9-10.3-22.9-22.9
			c0-10.5,7-19.3,16.6-22c1.5-11.2,11.1-19.8,22.7-19.8c4,0,7.8,1,11,2.8c5.4-10,16-16.8,28.2-16.8c17.7,0,32.1,14.4,32.1,32.1
			c0,1.2-0.1,2.4-0.2,3.6c7.1,3.9,12,11.4,12,20.1c0,12.7-10.3,22.9-22.9,22.9c-1.1,0-2.1-0.1-3.1-0.2L534.7,717.1L534.7,717.1z"/>
	</g>
	<text transform="matrix(1 0 0 1 435.3335 596.801)" class="st2 st3">API聚合支付</text>
</g>
</svg>
