<?xml version="1.0" encoding="iso-8859-1"?>
<!-- Generator: Adobe Illustrator 18.0.0, SVG Export Plug-In . SVG Version: 6.00 Build 0)  -->
<!DOCTYPE svg PUBLIC "-//W3C//DTD SVG 1.1//EN" "http://www.w3.org/Graphics/SVG/1.1/DTD/svg11.dtd">
<svg version="1.1" id="Capa_1" xmlns="http://www.w3.org/2000/svg" xmlns:xlink="http://www.w3.org/1999/xlink" x="0px" y="0px"
	 viewBox="0 0 57.004 57.004" style="enable-background:new 0 0 57.004 57.004;" xml:space="preserve">
<g>
	<path d="M55.704,53.639L43.858,33.332c-0.405-0.695-1.127-1.109-1.932-1.109s-1.527,0.414-1.933,1.109L28.148,53.639
		c-0.409,0.7-0.412,1.539-0.008,2.242c0.404,0.703,1.129,1.123,1.94,1.123h23.69c0.812,0,1.537-0.42,1.94-1.123
		C56.115,55.177,56.113,54.339,55.704,53.639z M53.977,54.885c-0.031,0.054-0.092,0.119-0.206,0.119H30.08
		c-0.114,0-0.175-0.064-0.206-0.119s-0.056-0.14,0.001-0.238L41.72,34.34c0.057-0.098,0.143-0.117,0.205-0.117
		s0.148,0.02,0.205,0.117l11.846,20.307C54.033,54.744,54.008,54.83,53.977,54.885z"/>
	<path d="M42.01,39.004c-0.552,0-1,0.447-1,1v8c0,0.553,0.448,1,1,1s1-0.447,1-1v-8C43.011,39.451,42.563,39.004,42.01,39.004z"/>
	<path d="M41.302,51.3c-0.19,0.18-0.29,0.439-0.29,0.71c0,0.26,0.1,0.51,0.29,0.7c0.19,0.189,0.45,0.3,0.71,0.3
		c0.26,0,0.52-0.11,0.71-0.3c0.18-0.19,0.29-0.44,0.29-0.7c0-0.271-0.11-0.53-0.29-0.71C42.341,50.92,41.671,50.92,41.302,51.3z"/>
	<path d="M25.991,41c-0.827,0-1.637-0.016-2.432-0.044c-0.482-0.018-0.947-0.049-1.417-0.076c-0.297-0.017-0.603-0.028-0.895-0.049
		c-0.624-0.045-1.23-0.103-1.829-0.165c-0.12-0.013-0.246-0.021-0.365-0.034c-0.686-0.075-1.354-0.161-2.005-0.256
		c-0.024-0.003-0.049-0.006-0.072-0.009c-3.379-0.499-6.279-1.26-8.548-2.165c-0.017-0.007-0.035-0.013-0.051-0.02
		c-0.414-0.167-0.803-0.338-1.174-0.514c-0.047-0.022-0.097-0.044-0.144-0.067c-0.333-0.16-0.64-0.325-0.935-0.491
		c-0.073-0.042-0.15-0.083-0.221-0.125c-0.256-0.15-0.49-0.304-0.714-0.458c-0.089-0.062-0.18-0.123-0.263-0.185
		c-0.188-0.139-0.358-0.28-0.52-0.421c-0.092-0.08-0.183-0.16-0.266-0.241c-0.132-0.128-0.249-0.257-0.358-0.386
		c-0.08-0.094-0.156-0.188-0.224-0.283c-0.087-0.121-0.161-0.242-0.227-0.363c-0.055-0.101-0.104-0.202-0.146-0.303
		c-0.048-0.119-0.086-0.238-0.114-0.356c-0.039-0.163-0.08-0.327-0.08-0.488v-8.207c0.018,0.016,0.039,0.032,0.057,0.048
		c0.232,0.205,0.47,0.409,0.738,0.605C7.559,28.791,15.086,31,25.991,31c10.875,0,18.389-2.197,22.171-5.03
		c0.299-0.218,0.567-0.443,0.822-0.671c0.002-0.002,0.005-0.004,0.007-0.006V34c0,0.553,0.447,1,1,1s1-0.447,1-1V22v-0.5v-12V9
		c0-0.182-0.062-0.343-0.146-0.49C49.688,4.22,41.069,0,25.991,0C10.914,0,2.294,4.22,1.138,8.51C1.053,8.657,0.991,8.818,0.991,9
		v0.5v12V22v11.5V34v12c0,0.161,0.042,0.313,0.115,0.448c1.139,4.833,10.691,7.68,19.811,8.364c0.025,0.002,0.051,0.003,0.076,0.003
		c0.519,0,0.957-0.399,0.996-0.925c0.042-0.551-0.372-1.031-0.922-1.072C9.953,51.984,3.475,48.6,3.023,45.838
		c-0.007-0.045-0.018-0.088-0.032-0.131v-8.414c0.018,0.016,0.039,0.032,0.057,0.048c0.232,0.205,0.47,0.409,0.738,0.605
		C7.559,40.791,15.086,43,25.991,43c0.552,0,1-0.447,1-1S26.544,41,25.991,41z M3.593,13.797c0.3,0.236,0.624,0.469,0.975,0.696
		c0.073,0.047,0.155,0.093,0.231,0.14c0.294,0.183,0.605,0.362,0.932,0.538c0.121,0.065,0.242,0.129,0.367,0.193
		c0.365,0.186,0.748,0.366,1.151,0.542c0.066,0.029,0.126,0.059,0.193,0.087c0.469,0.199,0.967,0.389,1.485,0.572
		c0.143,0.051,0.293,0.099,0.44,0.149c0.412,0.139,0.838,0.272,1.279,0.401c0.159,0.046,0.315,0.094,0.478,0.139
		c0.585,0.162,1.189,0.316,1.823,0.458c0.087,0.02,0.181,0.037,0.269,0.056c0.559,0.122,1.139,0.235,1.735,0.34
		c0.202,0.036,0.407,0.07,0.613,0.104c0.567,0.093,1.151,0.179,1.75,0.257c0.154,0.02,0.301,0.042,0.457,0.062
		c0.744,0.09,1.514,0.167,2.305,0.233c0.195,0.016,0.398,0.028,0.596,0.042c0.633,0.046,1.28,0.084,1.942,0.114
		c0.241,0.011,0.481,0.022,0.727,0.03c0.863,0.03,1.741,0.05,2.65,0.05s1.788-0.021,2.65-0.05c0.245-0.008,0.485-0.02,0.727-0.03
		c0.662-0.03,1.309-0.068,1.942-0.114c0.198-0.015,0.4-0.026,0.596-0.042c0.791-0.065,1.561-0.143,2.305-0.233
		c0.156-0.019,0.303-0.042,0.457-0.062c0.599-0.078,1.182-0.164,1.75-0.257c0.206-0.034,0.411-0.068,0.613-0.104
		c0.596-0.105,1.176-0.218,1.735-0.34c0.088-0.019,0.182-0.036,0.269-0.056c0.634-0.142,1.238-0.296,1.823-0.458
		c0.163-0.045,0.319-0.092,0.478-0.139c0.441-0.128,0.867-0.262,1.279-0.401c0.147-0.05,0.297-0.098,0.44-0.149
		c0.518-0.184,1.017-0.374,1.485-0.572c0.067-0.028,0.127-0.059,0.193-0.087c0.403-0.176,0.786-0.356,1.151-0.542
		c0.125-0.064,0.247-0.128,0.367-0.193c0.327-0.175,0.638-0.354,0.932-0.538c0.076-0.047,0.158-0.093,0.231-0.14
		c0.351-0.227,0.675-0.459,0.975-0.696c0.075-0.06,0.142-0.12,0.215-0.18c0.13-0.108,0.267-0.215,0.387-0.324V21.5
		c0,0.161-0.041,0.323-0.079,0.485c-0.028,0.121-0.067,0.241-0.116,0.362c-0.04,0.099-0.089,0.198-0.143,0.297
		c-0.067,0.123-0.142,0.246-0.23,0.368c-0.067,0.093-0.142,0.186-0.22,0.278c-0.111,0.131-0.229,0.261-0.362,0.391
		c-0.082,0.08-0.171,0.158-0.261,0.237c-0.163,0.143-0.334,0.284-0.524,0.425c-0.082,0.061-0.172,0.121-0.259,0.182
		c-0.225,0.155-0.461,0.31-0.718,0.461c-0.069,0.041-0.144,0.081-0.215,0.122c-0.296,0.167-0.606,0.333-0.94,0.494
		c-0.045,0.022-0.093,0.043-0.138,0.064c-0.373,0.176-0.763,0.349-1.18,0.516c-0.015,0.006-0.03,0.011-0.045,0.017
		c-2.27,0.906-5.172,1.667-8.553,2.167c-0.021,0.003-0.044,0.005-0.066,0.009c-0.653,0.096-1.324,0.182-2.012,0.257
		c-0.117,0.013-0.241,0.021-0.359,0.034c-0.602,0.062-1.21,0.12-1.835,0.165c-0.291,0.021-0.595,0.032-0.891,0.049
		c-0.471,0.027-0.938,0.059-1.421,0.076C27.629,28.984,26.818,29,25.991,29c-0.827,0-1.637-0.016-2.432-0.044
		c-0.482-0.018-0.947-0.049-1.417-0.076c-0.297-0.017-0.603-0.028-0.895-0.049c-0.624-0.045-1.23-0.103-1.829-0.165
		c-0.12-0.013-0.246-0.021-0.365-0.034c-0.686-0.075-1.354-0.161-2.005-0.256c-0.024-0.003-0.049-0.006-0.072-0.009
		c-3.379-0.499-6.279-1.26-8.548-2.165c-0.017-0.007-0.035-0.013-0.051-0.02c-0.414-0.167-0.803-0.338-1.174-0.514
		c-0.047-0.022-0.097-0.044-0.144-0.067c-0.333-0.16-0.64-0.325-0.935-0.491c-0.073-0.042-0.15-0.083-0.221-0.125
		c-0.256-0.15-0.49-0.304-0.714-0.458c-0.089-0.062-0.18-0.123-0.263-0.185c-0.188-0.139-0.358-0.28-0.52-0.421
		c-0.092-0.08-0.183-0.16-0.266-0.241c-0.132-0.128-0.249-0.257-0.358-0.386c-0.08-0.094-0.156-0.188-0.224-0.283
		c-0.087-0.121-0.161-0.242-0.227-0.363c-0.055-0.101-0.104-0.202-0.146-0.303c-0.048-0.119-0.086-0.238-0.114-0.356
		c-0.039-0.163-0.08-0.327-0.08-0.488v-8.207c0.12,0.109,0.257,0.216,0.387,0.324C3.451,13.677,3.518,13.737,3.593,13.797z
		 M25.991,2c13.554,0,23,3.952,23,7.5s-9.446,7.5-23,7.5s-23-3.952-23-7.5S12.437,2,25.991,2z"/>
</g>
<g>
</g>
<g>
</g>
<g>
</g>
<g>
</g>
<g>
</g>
<g>
</g>
<g>
</g>
<g>
</g>
<g>
</g>
<g>
</g>
<g>
</g>
<g>
</g>
<g>
</g>
<g>
</g>
<g>
</g>
</svg>
