<?xml version="1.0" encoding="iso-8859-1"?>
<!-- Generator: Adobe Illustrator 19.0.0, SVG Export Plug-In . SVG Version: 6.00 Build 0)  -->
<svg version="1.1" id="Layer_1" xmlns="http://www.w3.org/2000/svg" xmlns:xlink="http://www.w3.org/1999/xlink" x="0px" y="0px"
	 viewBox="0 0 480.664 480.664" style="enable-background:new 0 0 480.664 480.664;" xml:space="preserve">
<g>
	<g>
		<path d="M478.665,72c0-39.704-32.296-72-72-72c-19.704,0-38.496,8.184-52,22.288C341.161,8.184,322.369,0,302.665,0
			c-39.704,0-72,32.296-72,72c0,24.752,12.456,47.36,33.376,60.688L275.353,144L134.665,284.688l-26.344-26.344
			c-3.128-3.128-8.184-3.128-11.312,0l-32,32c-3.128,3.128-3.128,8.184,0,11.312L91.353,328l-12.688,12.688l-26.344-26.344
			c-3.128-3.128-8.184-3.128-11.312,0l-33,33c-3.128,3.128-3.128,8.184,0,11.312L34.353,385L4.345,415.008
			c-3.128,3.128-3.128,8.184,0,11.312l52,52c1.56,1.56,3.608,2.344,5.656,2.344s4.096-0.784,5.656-2.344l51.008-51.008
			l26.344,26.344c3.128,3.128,8.184,3.128,11.312,0l40-40c3.128-3.128,3.128-8.184,0-11.312L169.977,376l168.688-168.688
			l7.312,7.312C359.305,235.544,381.913,248,406.665,248c39.704,0,72-32.296,72-72c0-19.704-8.184-38.496-22.288-52
			C470.481,110.496,478.665,91.704,478.665,72z M462.665,176c0,30.872-25.128,56-56,56c-19.488,0-37.272-9.944-47.584-26.6
			c-0.328-0.52-0.712-1.008-1.152-1.448l-13.608-13.608c-3.128-3.128-8.184-3.128-11.312,0l-180,180
			c-3.128,3.128-3.128,8.184,0,11.312L179.353,408l-28.688,28.688l-26.344-26.344c-3.128-3.128-8.184-3.128-11.312,0l-51.008,51.008
			l-40.688-40.688l30.008-30.008c3.128-3.128,3.128-8.184,0-11.312L24.977,353l21.688-21.688l26.344,26.344
			c3.128,3.128,8.184,3.128,11.312,0l24-24c3.128-3.128,3.128-8.184,0-11.312L81.977,296l20.688-20.688l26.344,26.344
			c3.128,3.128,8.184,3.128,11.312,0l152-152c3.128-3.128,3.128-8.184,0-11.312l-17.608-17.608c-0.44-0.44-0.92-0.824-1.448-1.152
			c-16.656-10.312-26.6-28.096-26.6-47.584c0-30.872,25.128-56,56-56c17.96,0,34.968,8.768,45.504,23.456c3,4.184,10,4.184,13,0
			C371.697,24.768,388.705,16,406.665,16c30.872,0,56,25.128,56,56c0,17.96-8.768,34.968-23.456,45.504
			c-2.096,1.504-3.336,3.92-3.336,6.496s1.24,5,3.336,6.496C453.897,141.032,462.665,158.04,462.665,176z"/>
	</g>
</g>
<g>
	<g>
		<rect x="173.811" y="228.009" transform="matrix(0.7071 -0.7071 0.7071 0.7071 -91.1265 252.0189)" width="169.678" height="16"/>
	</g>
</g>
<g>
	<g>
		<rect x="163.35" y="311.983" transform="matrix(0.7071 -0.7071 0.7071 0.7071 -175.1045 217.2252)" width="22.624" height="16"/>
	</g>
</g>
<g>
	<g>
		<path d="M406.665,40c-17.648,0-32,14.352-32,32s14.352,32,32,32s32-14.352,32-32S424.313,40,406.665,40z M406.665,88
			c-8.824,0-16-7.176-16-16s7.176-16,16-16c8.824,0,16,7.176,16,16S415.489,88,406.665,88z"/>
	</g>
</g>
<g>
	<g>
		<rect x="310.663" y="92.674" transform="matrix(0.7071 -0.7071 0.7071 0.7071 19.8046 255.7854)" width="16" height="22.624"/>
	</g>
</g>
<g>
	<g>
		<rect x="342.661" y="124.674" transform="matrix(0.7071 -0.7071 0.7071 0.7071 6.5493 287.7842)" width="16" height="22.624"/>
	</g>
</g>
<g>
	<g>
		<rect x="374.659" y="156.674" transform="matrix(0.7071 -0.7071 0.7071 0.7071 -6.706 319.7831)" width="16" height="22.624"/>
	</g>
</g>
<g>
	<g>
		<path d="M470.665,344h-14.032c-0.44-1.112-0.896-2.216-1.392-3.328l9.928-9.928c3.128-3.128,3.128-8.184,0-11.312l-33.936-33.936
			c-3.128-3.128-8.184-3.128-11.312,0l-9.928,9.928c-1.112-0.496-2.216-0.952-3.328-1.392V280c0-4.424-3.576-8-8-8h-48
			c-4.424,0-8,3.576-8,8v14.032c-1.112,0.44-2.216,0.896-3.328,1.392l-9.928-9.928c-3.128-3.128-8.184-3.128-11.312,0
			l-33.936,33.936c-3.128,3.128-3.128,8.184,0,11.312l9.928,9.928c-0.496,1.112-0.952,2.216-1.392,3.328h-14.032
			c-4.424,0-8,3.576-8,8v48c0,4.424,3.576,8,8,8h14.032c0.44,1.112,0.896,2.216,1.392,3.328l-9.928,9.928
			c-3.128,3.128-3.128,8.184,0,11.312l33.936,33.936c3.128,3.128,8.184,3.128,11.312,0l9.928-9.928
			c1.112,0.496,2.216,0.952,3.328,1.392V472c0,4.424,3.576,8,8,8h48c4.424,0,8-3.576,8-8v-14.032
			c1.112-0.44,2.216-0.896,3.328-1.392l9.928,9.928c3.128,3.128,8.184,3.128,11.312,0l33.936-33.936
			c3.128-3.128,3.128-8.184,0-11.312l-9.928-9.928c0.496-1.112,0.952-2.216,1.392-3.328h14.032c4.424,0,8-3.576,8-8v-48
			C478.665,347.576,475.089,344,470.665,344z M462.665,392h-11.672c-3.496,0-6.576,2.264-7.632,5.592
			c-1.216,3.864-2.856,7.8-4.88,11.672c-1.616,3.104-1.032,6.888,1.44,9.36l8.288,8.288l-22.624,22.624l-8.288-8.288
			c-2.472-2.472-6.256-3.056-9.36-1.44c-3.872,2.024-7.808,3.664-11.672,4.88c-3.336,1.064-5.6,4.144-5.6,7.64V464h-32v-11.672
			c0-3.496-2.264-6.576-5.592-7.632c-3.864-1.216-7.8-2.856-11.672-4.88c-3.104-1.616-6.88-1.032-9.36,1.44l-8.288,8.288
			l-22.624-22.624l8.288-8.288c2.472-2.472,3.056-6.256,1.44-9.36c-2.024-3.872-3.664-7.808-4.88-11.672
			c-1.064-3.336-4.144-5.6-7.64-5.6h-11.672v-32h11.672c3.496,0,6.576-2.264,7.632-5.592c1.216-3.864,2.856-7.8,4.88-11.672
			c1.616-3.104,1.032-6.888-1.44-9.36l-8.288-8.288l22.624-22.624l8.288,8.288c2.48,2.48,6.256,3.048,9.36,1.44
			c3.872-2.024,7.808-3.664,11.672-4.88c3.336-1.064,5.6-4.144,5.6-7.64V288h32v11.672c0,3.496,2.264,6.576,5.592,7.632
			c3.864,1.216,7.8,2.856,11.672,4.88c3.104,1.608,6.888,1.04,9.36-1.44l8.288-8.288l22.624,22.624l-8.288,8.288
			c-2.472,2.472-3.056,6.256-1.44,9.36c2.024,3.872,3.664,7.808,4.88,11.672c1.064,3.336,4.144,5.6,7.64,5.6h11.672V392z"/>
	</g>
</g>
<g>
	<g>
		<path d="M374.665,328c-26.472,0-48,21.528-48,48s21.528,48,48,48s48-21.528,48-48S401.137,328,374.665,328z M374.665,408
			c-17.648,0-32-14.352-32-32s14.352-32,32-32s32,14.352,32,32S392.313,408,374.665,408z"/>
	</g>
</g>
<g>
	<g>
		<path d="M54.665,168h-16c0,13.232-10.768,24-24,24v16c13.232,0,24,10.768,24,24h16c0-13.232,10.768-24,24-24v-16
			C65.433,192,54.665,181.232,54.665,168z M46.665,208.248c-2.336-3.144-5.104-5.912-8.248-8.248
			c3.144-2.336,5.912-5.104,8.248-8.248c2.336,3.144,5.104,5.912,8.248,8.248C51.769,202.336,49.001,205.104,46.665,208.248z"/>
	</g>
</g>
<g>
	<g>
		<path d="M150.665,120h-16c0,13.232-10.768,24-24,24v16c13.232,0,24,10.768,24,24h16c0-13.232,10.768-24,24-24v-16
			C161.433,144,150.665,133.232,150.665,120z M142.665,160.248c-2.336-3.144-5.104-5.912-8.248-8.248
			c3.144-2.336,5.912-5.104,8.248-8.248c2.336,3.144,5.104,5.912,8.248,8.248C147.769,154.336,145.001,157.104,142.665,160.248z"/>
	</g>
</g>
<g>
	<g>
		<path d="M70.665,48h-16c0,13.232-10.768,24-24,24v16c13.232,0,24,10.768,24,24h16c0-13.232,10.768-24,24-24V72
			C81.433,72,70.665,61.232,70.665,48z M62.665,88.248c-2.336-3.144-5.104-5.912-8.248-8.248c3.144-2.336,5.912-5.104,8.248-8.248
			c2.336,3.144,5.104,5.912,8.248,8.248C67.769,82.336,65.001,85.104,62.665,88.248z"/>
	</g>
</g>
<g>
</g>
<g>
</g>
<g>
</g>
<g>
</g>
<g>
</g>
<g>
</g>
<g>
</g>
<g>
</g>
<g>
</g>
<g>
</g>
<g>
</g>
<g>
</g>
<g>
</g>
<g>
</g>
<g>
</g>
</svg>
