<?xml version="1.0" encoding="iso-8859-1"?>
<!-- Generator: Adobe Illustrator 16.0.0, SVG Export Plug-In . SVG Version: 6.00 Build 0)  -->
<!DOCTYPE svg PUBLIC "-//W3C//DTD SVG 1.1//EN" "http://www.w3.org/Graphics/SVG/1.1/DTD/svg11.dtd">
<svg xmlns="http://www.w3.org/2000/svg" xmlns:xlink="http://www.w3.org/1999/xlink" version="1.1" id="Capa_1" x="0px" y="0px" width="512px" height="512px" viewBox="0 0 849.1 849.099" style="enable-background:new 0 0 849.1 849.099;" xml:space="preserve">
<g>
	<g>
		<path d="M796.3,137.85H734v5.7c0,33.1-26.9,60-60,60h-5.6c-33.101,0-60-26.9-60-60v-5.7h-121v5.7c0,33.1-26.9,60-60,60H421.8    c-33.1,0-60-26.9-60-60v-5.7h-121v5.7c0,33.1-26.9,60-60,60h-5.6c-33.1,0-60-26.9-60-60v-5.7H52.9c-29.2,0-52.9,23.7-52.9,52.9    v567.3c0,29.2,23.7,52.9,52.9,52.9h549.4c-2.899-7.2-4.5-15-4.5-23v-145.1c0-46,37.4-83.4,83.4-83.4H826.1    c8.101,0,15.9,1.5,23,4.4v-373.2C849.2,161.45,825.5,137.85,796.3,137.85z M417.8,642.85h-185c-13.8,0-25-11.2-25-25    c0-13.801,11.2-25,25-25h185c13.8,0,25,11.199,25,25C442.8,631.65,431.6,642.85,417.8,642.85z M603.6,505.35H233.7    c-13.8,0-25-11.2-25-25c0-13.801,11.2-25,25-25H603.6c13.801,0,25,11.199,25,25C628.6,494.15,617.4,505.35,603.6,505.35z     M603.6,367.85H233.7c-13.8,0-25-11.2-25-25c0-13.801,11.2-25,25-25H603.6c13.801,0,25,11.199,25,25    C628.6,356.65,617.4,367.85,603.6,367.85z" fill="#f95476"/>
		<path d="M826.1,598.35H681.2c-24.601,0-44.5,19.899-44.5,44.5V787.75c0,19.8,24,29.8,38,15.7l167.2-167.2    c4.5-4.5,6.6-10.1,6.6-15.6C848.4,609.35,839.5,598.35,826.1,598.35z" fill="#f95476"/>
		<path d="M668.4,173.55h5.6c16.6,0,30-13.4,30-30v-5.7v-32v-37.7c0-16.6-13.4-30-30-30h-5.6c-16.601,0-30,13.4-30,30v37.7v32v5.7    C638.4,160.15,651.8,173.55,668.4,173.55z" fill="#f95476"/>
		<path d="M421.8,173.55h5.601c16.6,0,30-13.4,30-30v-5.7v-32v-37.7c0-16.6-13.4-30-30-30H421.8c-16.6,0-30,13.4-30,30v37.7v32v5.7    C391.8,160.15,405.2,173.55,421.8,173.55z" fill="#f95476"/>
		<path d="M175.2,173.55h5.6c16.6,0,30-13.4,30-30v-5.7v-32v-37.7c0-16.6-13.4-30-30-30h-5.6c-16.6,0-30,13.4-30,30v37.7v32v5.7    C145.2,160.15,158.6,173.55,175.2,173.55z" fill="#f95476"/>
	</g>
</g>
<g>
</g>
<g>
</g>
<g>
</g>
<g>
</g>
<g>
</g>
<g>
</g>
<g>
</g>
<g>
</g>
<g>
</g>
<g>
</g>
<g>
</g>
<g>
</g>
<g>
</g>
<g>
</g>
<g>
</g>
</svg>
