<?xml version="1.0" encoding="iso-8859-1"?>
<!-- Generator: Adobe Illustrator 18.0.0, SVG Export Plug-In . SVG Version: 6.00 Build 0)  -->
<!DOCTYPE svg PUBLIC "-//W3C//DTD SVG 1.1//EN" "http://www.w3.org/Graphics/SVG/1.1/DTD/svg11.dtd">
<svg version="1.1" id="Capa_1" xmlns="http://www.w3.org/2000/svg" xmlns:xlink="http://www.w3.org/1999/xlink" x="0px" y="0px"
	 viewBox="0 0 415.76 415.76" style="enable-background:new 0 0 415.76 415.76;" xml:space="preserve">
<g>
	<path d="M408.26,319.76c-4.142,0-7.5,3.358-7.5,7.5c0,40.528-32.972,73.5-73.5,73.5c-4.142,0-7.5,3.358-7.5,7.5s3.358,7.5,7.5,7.5
		c48.799,0,88.5-39.701,88.5-88.5C415.76,323.118,412.402,319.76,408.26,319.76z"/>
	<path d="M327.26,388.76c33.911,0,61.5-27.589,61.5-61.5c0-4.142-3.358-7.5-7.5-7.5s-7.5,3.358-7.5,7.5
		c0,25.64-20.86,46.5-46.5,46.5c-4.142,0-7.5,3.358-7.5,7.5S323.118,388.76,327.26,388.76z"/>
	<path d="M327.26,361.76c19.023,0,34.5-15.477,34.5-34.5c0-4.142-3.358-7.5-7.5-7.5s-7.5,3.358-7.5,7.5
		c0,10.752-8.748,19.5-19.5,19.5c-4.142,0-7.5,3.358-7.5,7.5S323.118,361.76,327.26,361.76z"/>
	<path d="M322.938,333.545c1.464,1.464,3.384,2.196,5.303,2.196s3.839-0.732,5.303-2.197c2.929-2.929,2.929-7.678,0-10.607
		l-2.634-2.634l39.244-39.244c1.407-1.406,2.197-3.314,2.197-5.303s-0.79-3.897-2.197-5.303
		c-19.419-19.419-47.437-25.101-71.907-17.082l-11.906-11.906l18.87-18.87c2.929-2.929,2.929-7.678,0-10.606l-48.252-48.252
		l19.055-19.055l23.688,23.688c1.464,1.464,3.384,2.197,5.303,2.197s3.839-0.732,5.303-2.197l97.583-97.583
		c1.407-1.406,2.197-3.314,2.197-5.303s-0.79-3.897-2.197-5.303L349.91,2.197C348.504,0.79,346.596,0,344.607,0
		s-3.897,0.79-5.303,2.197L241.721,99.78c-1.407,1.406-2.197,3.314-2.197,5.303c0,1.989,0.79,3.897,2.197,5.303l23.688,23.688
		l-19.055,19.055l-36.394-36.394c-14.444-14.443-36.93-16.04-53.167-4.816L139.8,94.927c-2.929-2.929-7.678-2.929-10.606,0
		l-34.267,34.267c-1.407,1.406-2.197,3.314-2.197,5.303s0.79,3.897,2.197,5.303l16.987,16.986
		c-4.797,6.913-7.389,15.102-7.389,23.694c0,11.136,4.337,21.604,12.211,29.479l36.394,36.394l-19.055,19.055l-23.688-23.688
		c-2.929-2.929-7.678-2.929-10.606,0L2.197,339.304c-2.929,2.929-2.929,7.678,0,10.606l57.983,57.983
		c1.464,1.464,3.384,2.197,5.303,2.197s3.839-0.732,5.303-2.197l97.583-97.583c2.929-2.929,2.929-7.678,0-10.606l-23.688-23.688
		l19.055-19.055l48.252,48.252c1.406,1.407,3.314,2.197,5.303,2.197s3.897-0.79,5.303-2.197l18.874-18.874l11.904,11.904
		c-8.021,24.471-2.341,52.492,17.08,71.913c1.464,1.465,3.384,2.197,5.303,2.197s3.839-0.732,5.303-2.197l39.244-39.244
		L322.938,333.545z M337.485,119.981l-47.376-47.376l22.021-22.021l47.376,47.376L337.485,119.981z M344.607,18.107l47.376,47.376
		l-21.872,21.872l-47.376-47.376L344.607,18.107z M279.502,83.212l47.376,47.376l-21.872,21.872l-47.376-47.376L279.502,83.212z
		 M72.605,290.108l47.376,47.376l-22.021,22.021l-47.376-47.376L72.605,290.108z M65.483,391.983l-47.376-47.376l21.872-21.872
		l47.376,47.376L65.483,391.983z M130.588,326.878l-47.376-47.376l21.872-21.872l47.376,47.376L130.588,326.878z M205.651,133.64
		l63.636,63.636l-72.011,72.011l-63.636-63.636L205.651,133.64z M180.482,119.538c4.886,0,9.77,1.338,14.061,3.998l-71.012,71.012
		c-2.605-4.183-4.005-9.016-4.005-14.067c0-7.129,2.776-13.831,7.817-18.872l34.267-34.267
		C166.813,122.139,173.646,119.538,180.482,119.538z M134.497,110.837l11.202,11.202l-11.83,11.83l-11.83,11.83l-11.203-11.202
		L134.497,110.837z M217.291,289.303l-9.409-9.409l72.011-72.011l9.409,9.409L217.291,289.303z M252.076,275.733l23.66-23.66
		l7.978,7.978c-4.723,2.868-9.186,6.325-13.263,10.401c-4.075,4.075-7.531,8.537-10.398,13.258L252.076,275.733z M276.112,353.888
		c-16.545-21.737-14.896-52.987,4.946-72.829c10.82-10.82,25.032-16.229,39.245-16.229c11.851,0,23.7,3.76,33.584,11.283
		L276.112,353.888z"/>
</g>
<g>
</g>
<g>
</g>
<g>
</g>
<g>
</g>
<g>
</g>
<g>
</g>
<g>
</g>
<g>
</g>
<g>
</g>
<g>
</g>
<g>
</g>
<g>
</g>
<g>
</g>
<g>
</g>
<g>
</g>
</svg>
