<?xml version="1.0" encoding="iso-8859-1"?>
<!-- Generator: Adobe Illustrator 16.0.0, SVG Export Plug-In . SVG Version: 6.00 Build 0)  -->
<!DOCTYPE svg PUBLIC "-//W3C//DTD SVG 1.1//EN" "http://www.w3.org/Graphics/SVG/1.1/DTD/svg11.dtd">
<svg xmlns="http://www.w3.org/2000/svg" xmlns:xlink="http://www.w3.org/1999/xlink" version="1.1" id="Capa_1" x="0px" y="0px" width="512px" height="512px" viewBox="0 0 549.907 549.908" style="enable-background:new 0 0 549.907 549.908;" xml:space="preserve">
<g>
	<path d="M110.534,220.962c0-49.027,39.741-88.768,88.768-88.768s88.768,39.741,88.768,88.768c0,49.026-39.741,88.768-88.768,88.768   S110.534,269.989,110.534,220.962z M236.968,315.783h-75.327c-62.668,0-113.655,50.986-113.655,113.646v92.143l0.236,1.437   l6.36,1.985c59.796,18.679,111.764,24.914,154.531,24.914c83.531,0,131.94-23.82,134.938-25.333l5.94-3.015l0.626,0.006v-92.137   C350.617,366.769,299.631,315.783,236.968,315.783z M350.617,177.533c49.024,0,88.768-39.741,88.768-88.768   C439.385,39.741,399.642,0,350.617,0c-49.023,0-88.768,39.741-88.768,88.765C261.85,137.792,301.594,177.533,350.617,177.533z    M388.28,183.585h-75.326c-1.797,0-3.547,0.189-5.32,0.275c6.81,14.295,10.74,30.225,10.74,47.094   c0,31.129-13.057,59.205-33.922,79.23c48.823,14.523,86.144,55.986,94.638,107.08c71.999-3.145,113.504-23.49,116.265-24.885   l5.94-3.015l0.626,0.012v-92.137C501.933,234.575,450.946,183.585,388.28,183.585z" fill="#ffb74e"/>
</g>
<g>
</g>
<g>
</g>
<g>
</g>
<g>
</g>
<g>
</g>
<g>
</g>
<g>
</g>
<g>
</g>
<g>
</g>
<g>
</g>
<g>
</g>
<g>
</g>
<g>
</g>
<g>
</g>
<g>
</g>
</svg>
